<?xml version="1.0" standalone="no"?>
<!DOCTYPE svg PUBLIC "-//W3C//DTD SVG 20010904//EN"
 "http://www.w3.org/TR/2001/REC-SVG-20010904/DTD/svg10.dtd">
<svg version="1.0" xmlns="http://www.w3.org/2000/svg"
 width="180.000000pt" height="180.000000pt" viewBox="0 0 180.000000 180.000000"
 preserveAspectRatio="xMidYMid meet">
<metadata>
Created by potrace 1.16, written by Peter Selinger 2001-2019
</metadata>
<g transform="translate(0.000000,180.000000) scale(0.100000,-0.100000)"
fill="#000000" stroke="none">
<path d="M0 900 l0 -900 900 0 900 0 0 900 0 900 -900 0 -900 0 0 -900z m1063
645 c226 -40 415 -210 483 -433 18 -62 18 -224 -2 -308 -8 -37 -29 -97 -46
-133 -35 -76 -26 -90 -73 109 -30 130 -82 248 -122 280 l-27 21 -13 -51 c-7
-28 -26 -71 -43 -95 -29 -42 -136 -145 -151 -145 -4 0 -13 17 -19 38 -41 127
-142 254 -213 267 -55 11 -139 -20 -196 -71 -48 -43 -101 -135 -101 -174 0
-11 -7 -20 -15 -20 -22 0 -94 69 -101 96 -8 33 -18 30 -31 -8 -20 -57 -33
-149 -34 -242 l-1 -91 -34 71 c-55 118 -85 236 -87 344 -3 150 33 234 125 296
38 26 44 33 28 37 -10 3 -40 1 -66 -4 -26 -5 -49 -7 -52 -4 -10 10 52 78 97
106 70 45 133 60 246 58 83 -1 109 3 150 21 48 21 157 47 200 49 11 0 55 -6
98 -14z m-325 -791 c54 -27 99 -72 114 -114 8 -23 14 -26 56 -26 46 0 48 1 77
50 20 33 47 61 79 81 43 26 59 30 121 30 62 0 78 -4 120 -30 27 -17 63 -50 80
-73 25 -37 30 -55 33 -116 4 -80 -8 -121 -53 -174 -54 -65 -158 -96 -242 -73
-88 24 -172 120 -173 198 0 49 -9 63 -40 63 -30 0 -40 -15 -40 -60 0 -15 -7
-43 -15 -63 -72 -173 -309 -197 -417 -42 -137 197 86 456 300 349z"/>
<path d="M579 727 c-121 -45 -172 -167 -116 -277 65 -130 253 -141 334 -19 39
59 43 138 11 199 -43 80 -151 126 -229 97z"/>
<path d="M1138 731 c-125 -40 -184 -172 -126 -281 97 -181 367 -114 368 91 0
120 -133 224 -242 190z"/>
</g>
</svg>
