<?xml version="1.0" standalone="no"?>
<!DOCTYPE svg PUBLIC "-//W3C//DTD SVG 20010904//EN"
 "http://www.w3.org/TR/2001/REC-SVG-20010904/DTD/svg10.dtd">
<svg version="1.0" xmlns="http://www.w3.org/2000/svg"
 width="1920.000000pt" height="1080.000000pt" viewBox="0 0 1920.000000 1080.000000"
 preserveAspectRatio="xMidYMid meet">
<metadata>
Created by potrace 1.16, written by Peter Selinger 2001-2019
</metadata>
<g transform="translate(0.000000,1080.000000) scale(0.100000,-0.100000)"
fill="#000000" stroke="none">
<path d="M9610 10522 c-42 -19 -72 -49 -95 -95 -21 -43 -25 -65 -25 -140 0
-81 -2 -88 -17 -82 -37 15 -158 16 -212 2 -53 -15 -56 -14 -86 9 -100 76 -229
73 -394 -10 -121 -62 -202 -160 -267 -326 -42 -108 -40 -244 5 -460 25 -119
31 -167 26 -208 -7 -58 -35 -146 -56 -180 -20 -31 -4 -37 41 -17 66 30 116 92
130 161 21 104 25 119 40 119 11 0 22 -38 42 -145 31 -166 33 -200 14 -290 -8
-36 -12 -67 -9 -70 8 -9 175 84 217 121 23 20 52 58 66 85 22 43 25 62 25 154
-1 103 -2 107 -43 191 -23 48 -42 96 -42 108 0 18 6 15 38 -20 42 -48 85 -69
138 -69 41 0 124 37 124 55 0 6 -19 32 -43 57 -27 28 -48 61 -56 89 -11 40
-10 51 9 102 35 93 93 147 157 147 26 0 113 -34 113 -43 0 -2 -15 -33 -33 -68
-19 -36 -39 -94 -46 -130 -12 -62 -11 -69 8 -105 12 -22 30 -50 41 -64 18 -22
19 -29 8 -57 -11 -28 -9 -35 15 -70 15 -22 27 -42 27 -46 0 -4 -18 -7 -39 -7
-28 0 -49 -8 -70 -26 -21 -18 -39 -24 -53 -21 -12 3 -29 2 -40 -4 -23 -13 -48
-61 -48 -94 0 -18 -6 -29 -20 -32 -34 -9 -26 -57 18 -105 l37 -41 -29 5 c-55
11 -92 -9 -158 -85 -108 -123 -174 -185 -227 -211 -75 -39 -102 -35 -148 19
-53 63 -68 60 -82 -18 -6 -35 -11 -93 -11 -130 0 -87 20 -111 113 -133 46 -12
67 -22 67 -32 0 -23 -48 -100 -70 -112 -51 -27 -177 0 -230 50 -35 32 -37 49
-12 80 18 22 19 22 45 6 38 -26 64 -8 73 49 11 74 -3 132 -42 175 -51 57 -80
65 -151 45 -102 -30 -124 -50 -162 -157 l-10 -27 -45 25 c-25 14 -69 28 -98
31 -50 5 -55 3 -85 -27 -18 -18 -41 -53 -53 -77 -18 -38 -23 -42 -40 -33 -48
26 -53 98 -12 185 41 87 53 94 100 61 44 -30 57 -32 66 -11 10 26 -21 169 -47
222 -30 59 -76 83 -157 83 -43 0 -55 -5 -89 -36 -31 -28 -43 -47 -52 -90 -14
-61 -32 -68 -57 -24 -29 52 33 173 109 212 48 24 159 27 194 4 14 -9 52 -70
91 -147 73 -143 125 -209 167 -209 39 0 91 68 128 169 29 77 32 98 33 196 1
106 0 112 -32 171 -44 80 -94 116 -203 145 -109 28 -230 29 -316 1 -141 -45
-302 -180 -372 -311 -39 -74 -61 -183 -61 -302 0 -103 14 -168 45 -219 26 -40
150 -160 167 -160 6 0 -7 -16 -29 -35 -24 -20 -52 -59 -68 -92 -21 -46 -39
-67 -85 -100 -73 -52 -108 -109 -116 -190 -8 -73 7 -126 44 -152 15 -10 61
-31 102 -45 107 -39 137 -60 151 -106 25 -82 -13 -152 -90 -165 -75 -12 -90
30 -35 102 30 40 24 57 -33 84 -62 30 -131 36 -172 15 -38 -20 -83 -87 -101
-151 -21 -76 -35 -73 -36 8 -1 86 -17 121 -77 171 -67 55 -143 86 -209 86 -83
0 -179 -41 -243 -105 -86 -85 -156 -257 -140 -343 16 -86 119 -228 186 -256
29 -12 29 -13 -35 -24 -79 -15 -182 -60 -249 -109 -73 -54 -201 -206 -246
-293 -22 -41 -62 -101 -90 -133 -31 -35 -55 -74 -61 -100 -6 -23 -14 -50 -17
-60 -2 -10 -9 -76 -13 -145 -6 -91 -16 -151 -35 -212 -22 -69 -27 -106 -27
-195 -2 -180 15 -219 193 -440 154 -192 158 -198 190 -292 l29 -86 -24 -22
c-29 -27 -46 -82 -46 -150 0 -51 -12 -75 -37 -75 -8 0 -13 12 -13 28 0 45 -28
142 -60 208 -35 72 -72 104 -167 142 -68 28 -177 96 -202 126 -18 22 -44 21
-37 -1 32 -112 39 -187 26 -282 -17 -126 4 -170 126 -257 35 -25 62 -49 59
-54 -2 -4 -49 -9 -104 -12 -83 -4 -106 -9 -144 -31 -64 -38 -73 -67 -47 -149
29 -86 71 -168 93 -182 15 -9 23 -6 45 22 15 18 35 32 45 32 9 0 17 -1 17 -2
0 -2 -13 -36 -28 -75 l-28 -73 -30 33 c-119 127 -173 249 -233 517 -18 81 -32
125 -41 125 -12 0 -49 -94 -85 -215 -21 -73 -17 -353 8 -490 51 -276 193 -588
435 -953 147 -223 231 -313 617 -658 230 -205 302 -262 607 -480 l177 -126
-89 -96 c-125 -135 -128 -142 -84 -230 83 -163 218 -322 364 -429 251 -182
737 -436 1041 -544 205 -72 595 -166 762 -184 56 -6 138 -15 182 -21 105 -14
412 -7 600 15 190 21 513 78 670 117 116 29 304 90 375 123 19 8 98 40 175 70
383 150 484 205 734 400 151 117 242 206 314 304 123 167 125 186 31 269 -62
54 -112 131 -99 152 2 4 40 29 84 55 260 154 587 407 850 661 171 164 405 436
486 565 151 238 291 574 330 795 9 50 21 109 26 132 11 53 11 444 0 498 -5 22
-12 66 -16 97 -4 40 -11 58 -21 58 -7 0 -16 -10 -18 -22 -48 -241 -87 -351
-147 -418 -34 -38 -38 -41 -26 -15 47 98 58 131 59 174 2 60 -35 140 -74 161
-24 13 -33 12 -117 -22 -87 -35 -115 -36 -48 -2 115 59 153 130 144 270 -6
101 13 208 48 275 40 78 37 78 -87 -4 -52 -35 -137 -80 -188 -101 -156 -65
-194 -115 -206 -274 -3 -51 -11 -95 -16 -98 -20 -12 -38 19 -38 66 0 45 -4 52
-50 96 -27 26 -52 56 -56 66 -9 29 29 97 114 205 138 177 221 322 272 473 26
80 28 194 4 300 -12 53 -17 131 -18 265 -3 218 -11 265 -65 343 -39 59 -73
121 -113 206 -29 61 -146 182 -227 235 -34 22 -93 52 -131 67 l-69 27 67 52
c133 104 177 195 170 343 -5 114 -35 180 -115 257 -110 106 -198 128 -334 84
-139 -46 -190 -96 -218 -215 -10 -43 -10 -58 6 -104 15 -44 29 -64 81 -108 35
-29 71 -52 80 -50 10 2 20 20 27 45 19 80 72 107 115 61 21 -23 21 -32 -2
-123 -13 -51 -65 -100 -148 -139 -75 -35 -124 -39 -162 -11 -43 32 -54 68 -40
134 19 93 16 144 -12 170 -16 15 -25 38 -29 74 -8 65 -30 96 -92 125 -73 36
-109 38 -166 12 -58 -27 -61 -45 -17 -83 l31 -28 -25 -26 c-32 -32 -66 -26
-91 16 -33 57 -24 80 54 141 103 80 166 151 174 198 6 37 -12 149 -33 202 -5
14 -24 42 -41 64 -18 22 -31 50 -31 67 0 39 -58 111 -100 126 -19 7 -52 12
-72 12 l-37 1 43 63 c102 146 147 252 172 399 29 177 8 275 -94 425 -49 72
-105 124 -174 160 -50 26 -60 28 -183 28 -115 -1 -140 -4 -219 -29 -74 -24
-98 -38 -145 -82 -31 -29 -70 -76 -86 -106 -26 -47 -30 -62 -29 -133 1 -96 25
-166 91 -263 25 -37 48 -78 52 -91 4 -14 15 -29 24 -35 35 -22 79 59 92 169
14 109 63 172 157 200 74 22 102 19 175 -17 73 -36 117 -81 132 -135 20 -70
13 -80 -20 -30 -57 86 -132 137 -203 137 -47 0 -121 -33 -141 -64 -25 -38 -45
-124 -45 -198 0 -59 2 -68 18 -68 11 0 27 9 36 19 38 42 120 35 166 -14 32
-34 25 -122 -15 -190 l-28 -49 -18 41 c-20 47 -69 84 -136 104 -37 10 -48 10
-82 -6 -22 -10 -50 -28 -62 -41 l-22 -23 -27 43 c-19 30 -44 51 -81 70 -63 31
-83 32 -144 6 -26 -11 -48 -20 -49 -20 -2 0 -6 29 -8 64 -6 65 -35 126 -61
126 -7 0 -19 -15 -27 -33 -24 -52 -118 -87 -193 -73 -49 9 -111 61 -197 168
-59 72 -91 101 -143 131 l-67 39 0 57 c0 61 -12 82 -57 95 -13 4 -36 26 -52
49 -39 58 -60 73 -104 81 -24 5 -36 12 -33 19 24 59 29 90 18 121 -12 31 -10
36 17 65 36 39 44 76 39 174 -3 62 -8 81 -32 116 -39 56 -29 64 72 60 111 -5
115 -10 110 -129 -3 -85 -7 -102 -36 -153 -17 -31 -32 -64 -32 -72 0 -19 46
-20 115 -1 101 27 149 67 191 163 13 28 28 55 35 59 18 11 6 -40 -37 -148 -90
-232 -96 -292 -38 -406 45 -87 89 -137 157 -177 54 -31 77 -24 77 25 0 51 38
151 80 211 40 58 42 62 47 157 6 122 8 131 30 110 14 -15 14 -24 -2 -102 -21
-110 -14 -156 32 -207 38 -41 67 -50 77 -22 4 9 4 46 1 82 -5 55 -1 83 24 173
66 232 68 372 6 528 -93 233 -176 293 -441 319 -69 7 -90 14 -144 47 -51 31
-74 39 -125 42 -78 5 -109 -9 -199 -89 -76 -67 -114 -94 -122 -86 -3 2 2 55
10 116 30 210 19 263 -59 301 -54 26 -117 23 -169 -9 -31 -19 -31 -19 -66 5
-27 19 -47 24 -90 23 -30 0 -62 -3 -70 -7z m127 -58 c52 -30 60 -48 69 -151 4
-45 17 -105 31 -142 23 -58 24 -67 13 -102 -19 -55 -32 -63 -64 -38 -34 27
-47 53 -52 101 -6 65 -24 119 -41 125 -11 4 -29 -7 -55 -35 -32 -34 -38 -48
-38 -84 l-1 -43 -22 27 c-32 40 -51 110 -44 169 9 77 95 187 156 198 2 1 24
-11 48 -25z m252 -227 c6 -8 12 -40 13 -72 3 -59 3 -59 -27 -65 -25 -4 -30
-10 -33 -35 -7 -80 -14 -97 -73 -161 -32 -36 -59 -76 -60 -88 0 -11 -2 -40 -5
-63 -3 -23 -1 -44 4 -47 5 -3 27 10 48 28 48 41 69 52 117 60 66 12 132 -36
181 -131 33 -65 13 -243 -28 -243 -13 0 -15 17 -15 96 0 52 -5 110 -11 129
-14 42 -53 70 -79 56 -25 -14 -68 -65 -76 -92 -9 -27 14 -109 32 -116 8 -3 29
9 48 27 29 28 35 31 41 17 12 -33 -6 -105 -36 -137 -36 -39 -58 -38 -100 5
-35 36 -50 37 -50 4 0 -24 -47 -119 -59 -119 -13 0 -61 59 -79 97 -14 30 -42
46 -42 25 0 -5 -15 -17 -34 -27 -33 -18 -34 -18 -70 4 -45 28 -66 58 -66 93 0
27 1 27 50 21 44 -5 52 -3 70 18 46 55 39 123 -17 148 -46 21 -74 13 -120 -34
-56 -59 -58 -98 -8 -184 19 -32 35 -62 35 -65 0 -17 -32 -2 -71 33 l-44 39 0
95 c0 113 8 129 100 191 74 50 114 53 174 12 49 -34 62 -29 32 13 -12 16 -38
65 -59 108 -36 76 -37 80 -37 195 0 97 3 120 17 134 15 15 19 15 34 4 12 -10
15 -24 11 -52 -8 -57 10 -108 53 -150 44 -44 77 -49 107 -15 25 27 63 127 63
166 0 61 11 91 35 91 12 0 27 -6 34 -13z m-915 -36 c67 -16 64 -26 -22 -70
-137 -72 -205 -155 -261 -316 -24 -70 -36 -188 -19 -183 7 3 21 33 33 69 29
83 50 124 91 175 69 86 226 163 332 164 62 0 61 -12 -2 -40 -42 -19 -106 -73
-106 -88 0 -5 -8 -24 -17 -43 -11 -22 -19 -66 -21 -125 -5 -117 13 -182 73
-259 24 -32 42 -61 39 -66 -2 -5 -21 -11 -40 -15 -51 -9 -94 14 -145 78 -52
67 -68 77 -86 52 -21 -29 -15 -118 18 -252 38 -153 36 -209 -9 -299 -28 -55
-81 -113 -103 -113 -5 0 -9 12 -9 28 0 15 -7 52 -15 82 -9 30 -19 109 -24 176
-7 97 -13 132 -34 177 -23 50 -29 57 -55 57 -44 0 -56 -23 -63 -119 -4 -54
-15 -103 -28 -133 -30 -65 -46 -73 -37 -19 19 118 17 157 -9 281 -46 214 -42
380 13 486 36 70 139 199 179 226 42 27 174 84 213 91 43 7 73 7 114 -2z
m1460 -47 c72 -35 106 -80 162 -215 31 -75 43 -94 66 -103 15 -6 28 -16 28
-24 0 -8 7 -11 18 -7 36 11 70 -31 97 -119 14 -45 25 -92 25 -104 0 -35 -40
-28 -73 13 -40 50 -59 47 -50 -7 14 -75 7 -130 -28 -228 -31 -90 -33 -104 -36
-255 -2 -87 -6 -162 -9 -165 -9 -8 -100 100 -131 155 -24 44 -28 61 -28 135 0
83 2 88 51 185 55 107 69 164 58 244 -8 64 -58 128 -91 117 -27 -9 -43 -54
-43 -123 0 -30 -7 -67 -15 -83 -26 -50 -116 -107 -150 -94 -21 9 -19 24 15 96
42 88 45 114 21 179 -16 42 -39 72 -97 129 -41 41 -79 81 -84 89 -8 16 -13 59
-11 96 1 26 46 77 91 105 48 29 133 23 214 -16z m1303 -940 c63 -32 197 -167
220 -222 37 -88 55 -218 37 -266 -16 -42 -69 10 -105 102 -28 75 -97 165 -157
205 -102 68 -262 34 -360 -77 -37 -42 -58 -111 -67 -218 -7 -87 -23 -101 -51
-46 -9 17 -33 53 -54 80 -21 26 -44 64 -50 84 -37 112 63 281 206 348 111 53
287 57 381 10z m-3694 -25 c73 -24 120 -58 145 -102 14 -26 17 -57 17 -157 0
-107 -4 -135 -24 -192 -14 -38 -35 -78 -48 -90 -23 -22 -24 -22 -42 -2 -27 27
-119 191 -126 223 -8 38 -75 123 -110 140 -17 9 -58 15 -95 14 -117 0 -205
-58 -290 -188 -71 -109 -64 -207 28 -392 53 -106 69 -153 52 -153 -23 0 -106
99 -139 165 -34 69 -43 129 -32 235 7 73 43 205 71 259 44 87 151 180 272 236
72 34 227 36 321 4z m1480 -333 c15 -11 27 -22 27 -25 0 -10 -76 -91 -85 -91
-4 0 -5 16 -2 35 4 26 3 33 -6 28 -7 -4 -21 -6 -33 -5 -28 4 -46 -20 -38 -52
7 -28 42 -45 54 -26 6 10 9 9 15 0 4 -7 2 -16 -5 -20 -7 -5 -14 -16 -15 -27
-1 -10 -7 -28 -13 -40 -16 -29 -15 -34 5 -26 14 5 15 1 10 -27 -4 -18 -7 -39
-7 -46 0 -8 -7 -14 -15 -14 -8 0 -15 -9 -15 -20 0 -17 -5 -19 -25 -14 -48 12
-77 -44 -34 -67 17 -9 25 -7 44 11 13 12 21 28 19 35 -3 7 -1 16 5 20 21 12
12 -60 -8 -74 -15 -11 -17 -18 -8 -32 6 -10 15 -15 19 -13 4 3 9 -10 10 -28 1
-18 2 -42 3 -53 1 -23 21 -91 42 -150 8 -21 15 -52 15 -67 1 -15 5 -28 9 -28
5 0 14 -18 20 -40 10 -32 9 -43 -1 -55 -8 -10 -10 -19 -4 -23 5 -4 11 -22 12
-39 3 -27 0 -33 -16 -33 -28 0 -34 -11 -14 -27 16 -13 15 -14 -5 -10 -12 3
-24 0 -25 -5 -2 -5 -39 -12 -83 -15 -94 -6 -124 3 -203 66 -52 41 -152 164
-152 187 0 7 -9 31 -20 55 -26 58 -26 79 0 72 26 -7 50 13 50 43 0 18 -7 25
-27 30 -56 12 -63 16 -74 35 -5 11 -7 29 -4 39 5 16 10 18 26 10 23 -13 25
-30 4 -30 -8 0 -15 -4 -15 -10 0 -13 13 -13 27 1 9 9 20 9 43 -1 43 -18 55 -3
35 43 -19 46 -20 44 13 49 29 4 29 3 41 -71 21 -126 72 -227 182 -359 74 -90
94 -92 92 -12 -2 69 -2 67 -12 52 -9 -16 -60 97 -90 203 -44 152 -39 218 30
446 22 74 43 155 46 180 l6 47 51 9 c55 10 57 9 99 -21z m307 -36 c11 -22 19
-43 18 -47 -1 -5 4 -26 11 -48 30 -99 21 -512 -14 -620 -9 -27 -32 -68 -51
-90 -32 -38 -34 -39 -33 -15 0 14 4 45 10 70 43 187 49 354 25 620 -8 79 -11
150 -9 157 9 23 22 14 43 -27z m535 -112 c52 -127 130 -182 293 -209 84 -14
133 -2 197 46 25 19 47 35 50 35 13 0 3 -118 -13 -150 -24 -49 -99 -92 -168
-98 -50 -4 -60 -1 -115 33 -49 30 -63 35 -70 24 -18 -28 2 -113 47 -194 53
-97 71 -119 153 -180 55 -41 61 -50 45 -56 -26 -9 -164 5 -191 19 -33 18 -89
89 -119 150 -19 41 -29 86 -37 160 -6 57 -16 102 -22 102 -5 0 -18 -19 -29
-41 -17 -38 -58 -70 -72 -56 -4 4 6 41 21 83 41 111 34 204 -26 367 -16 43
-29 84 -29 90 1 26 58 -57 85 -125z m1315 111 c86 -51 133 -123 128 -192 -4
-57 -23 -58 -98 -3 -73 54 -106 58 -190 21 l-55 -23 -3 21 c-10 58 51 156 113
183 42 19 65 17 105 -7z m-2600 -7 c0 -4 -22 -33 -49 -63 -27 -31 -85 -109
-129 -175 -43 -65 -88 -126 -98 -135 -66 -56 -244 5 -244 85 0 37 18 41 50 11
29 -28 30 -28 92 -15 88 17 132 42 176 101 59 80 114 140 156 171 42 30 46 32
46 20z m-1259 -28 c25 -12 59 -87 46 -100 -3 -3 -20 4 -37 16 -22 16 -38 20
-58 15 -30 -7 -92 -62 -92 -81 0 -6 -6 -17 -14 -23 -12 -10 -17 -8 -25 7 -15
28 17 118 55 159 27 29 36 32 65 27 19 -4 46 -13 60 -20z m2300 -5 c67 -130
82 -191 76 -293 -6 -90 -37 -236 -55 -259 -5 -7 -12 -23 -15 -37 -9 -38 -30
-61 -45 -51 -10 6 -11 13 -3 27 13 22 33 99 36 134 16 210 16 249 1 329 -9 47
-14 93 -10 103 3 10 1 18 -4 18 -13 0 -24 29 -16 41 8 13 26 7 35 -12z m-486
-69 c10 -11 26 -20 36 -20 10 0 21 -4 24 -10 3 -5 1 -10 -6 -10 -12 0 -38 -28
-39 -42 0 -4 9 -10 20 -13 24 -8 27 -35 4 -35 -32 0 -6 -25 29 -28 20 -2 37
-7 37 -11 0 -13 -53 -21 -66 -10 -16 13 -26 -2 -12 -18 8 -11 6 -18 -10 -34
-25 -23 -25 -20 -12 -53 5 -14 15 -26 22 -26 8 0 14 -15 15 -40 4 -65 8 -94
15 -106 5 -7 -7 -19 -27 -30 -38 -20 -48 -36 -38 -59 6 -18 54 -45 78 -45 20
0 19 -14 -6 -93 -16 -52 -25 -67 -40 -67 -18 0 -21 7 -33 72 -3 11 1 15 10 11
8 -3 14 -1 14 5 0 5 -8 12 -18 14 -30 8 -60 155 -66 323 -4 116 25 345 44 345
4 0 15 -9 25 -20z m-512 -39 c9 -7 21 -10 26 -7 5 4 12 2 16 -4 3 -6 0 -12 -7
-15 -7 -3 -13 -18 -14 -34 -1 -16 -5 -37 -9 -47 -9 -19 -10 -29 -13 -92 -2
-30 -4 -31 -22 -20 -16 10 -24 10 -40 1 -28 -18 -33 -3 -25 90 5 59 14 95 33
130 21 40 27 45 33 30 4 -10 14 -25 22 -32z m-707 -165 c34 -34 43 -71 28
-110 -9 -22 -21 -20 -56 9 -36 30 -61 27 -99 -15 -29 -30 -69 -126 -69 -163 1
-35 38 -108 81 -159 22 -27 35 -48 29 -48 -24 0 -70 31 -104 71 -50 59 -69
124 -64 218 6 90 28 141 87 194 35 31 48 37 87 37 39 0 51 -5 80 -34z m2675
-104 c77 -69 52 -264 -41 -313 -65 -34 -108 -49 -136 -49 -32 0 -114 29 -114
40 0 4 32 10 72 14 127 12 192 65 192 160 1 45 -3 59 -24 81 -21 23 -31 26
-62 21 -33 -5 -38 -4 -38 13 0 28 47 61 86 61 23 0 44 -9 65 -28z m379 13 c44
-23 73 -78 74 -144 1 -49 -4 -65 -41 -126 -42 -71 -40 -90 5 -66 23 12 236 71
258 71 28 0 64 -47 64 -85 0 -34 1 -35 39 -35 57 0 83 -25 89 -88 3 -41 10
-55 26 -64 38 -19 66 -51 66 -75 0 -52 -64 -141 -94 -130 -12 5 -12 11 0 44
30 85 10 173 -41 173 -13 0 -77 -36 -143 -79 -118 -79 -172 -108 -245 -131
-40 -12 -34 -14 -145 44 -80 43 -142 35 -278 -34 -102 -51 -108 -53 -143 -41
-80 28 -223 106 -242 133 -24 33 -17 35 43 8 62 -27 128 -30 237 -8 166 33
240 89 310 232 45 91 56 139 47 191 -6 31 -10 35 -34 33 -15 -2 -30 -7 -33
-12 -15 -19 -29 8 -29 54 0 70 46 122 125 141 46 11 54 10 85 -6z m270 -21 c6
-14 10 -36 10 -48 0 -13 10 -36 22 -51 27 -34 20 -47 -49 -85 -29 -16 -63 -36
-76 -45 -13 -8 -26 -12 -30 -9 -3 4 -3 36 0 72 6 65 20 96 73 165 27 34 38 34
50 1z m-3689 -23 c28 -28 36 -61 23 -95 -9 -23 -31 -20 -45 6 l-12 22 -18 -23
c-26 -32 -24 -90 4 -132 29 -43 82 -79 118 -79 67 0 110 -40 73 -67 -23 -18
-201 -13 -249 7 -29 12 -29 12 -10 26 55 37 58 41 52 65 -4 13 -32 53 -62 89
-30 35 -55 72 -55 83 0 28 26 72 60 101 42 35 83 34 121 -3z m829 -23 c-1 -13
-20 -98 -38 -169 -18 -69 -77 -164 -148 -236 -85 -87 -110 -93 -149 -36 -14
21 -25 45 -25 55 0 24 35 54 98 83 44 20 53 28 50 47 -2 16 -10 23 -25 23 -36
0 -37 13 -1 30 50 26 78 55 100 108 17 38 31 54 72 78 57 32 66 35 66 17z
m2015 -118 c3 0 25 16 51 35 25 19 50 35 55 35 37 0 -7 -132 -51 -155 -75 -38
-149 -26 -204 35 -27 30 -36 49 -36 75 l0 35 54 0 c39 0 62 6 87 23 l34 23 3
-53 c2 -29 5 -53 7 -53z m-3166 -21 c33 -12 133 -130 181 -215 14 -24 44 -57
66 -73 34 -24 84 -79 84 -93 0 -1 -43 -3 -96 -3 l-96 0 -34 -37 c-19 -21 -34
-47 -34 -59 0 -17 -4 -19 -22 -13 -34 10 -95 54 -176 128 -79 70 -110 82 -188
73 -69 -7 -84 -27 -84 -109 0 -51 -3 -69 -12 -66 -24 8 -51 70 -50 113 1 92
67 155 163 155 85 0 139 -24 220 -96 40 -35 83 -67 96 -70 36 -9 99 13 136 47
l32 29 -35 31 c-48 41 -118 59 -220 57 -93 -1 -155 19 -199 66 -28 30 -22 44
40 86 85 58 157 74 228 49z m1192 -219 c-43 -134 -87 -209 -141 -239 -78 -45
-135 -110 -155 -178 l-18 -61 -87 64 c-123 90 -122 88 -59 119 29 15 75 48
103 74 28 25 77 64 108 85 31 21 76 58 98 82 39 43 111 179 126 239 6 26 8 24
30 -35 l22 -63 -27 -87z m1518 120 c12 -38 36 -79 63 -109 24 -26 48 -59 55
-72 6 -13 21 -46 34 -73 34 -75 124 -158 201 -186 35 -12 83 -31 107 -42 l45
-19 -130 -78 c-71 -43 -172 -107 -224 -143 -85 -58 -238 -148 -252 -148 -16 0
12 65 45 104 70 84 174 136 273 136 42 0 74 19 74 44 0 35 -35 120 -61 151
-24 27 -42 37 -90 46 -33 6 -63 17 -67 23 -16 27 -74 166 -92 225 -25 78 -27
201 -4 201 1 0 11 -27 23 -60z m-1368 -329 c53 -16 116 -39 140 -52 49 -25
194 -132 252 -188 29 -27 167 -184 184 -210 1 -2 44 36 96 85 51 49 124 113
162 141 77 58 221 132 305 157 69 21 230 34 230 18 0 -10 -22 -16 -177 -46
-142 -29 -306 -131 -505 -316 -58 -55 -111 -100 -116 -100 -5 0 -26 25 -46 55
-56 81 -271 283 -352 331 -119 70 -218 105 -301 106 -62 0 -73 3 -73 18 0 9 3
20 7 23 15 15 104 5 194 -22z m-963 -30 c45 -11 106 -31 136 -45 64 -31 276
-183 440 -315 199 -160 226 -175 366 -207 67 -16 106 -44 153 -108 l20 -29
-139 5 c-207 7 -236 22 -554 287 -188 157 -211 173 -285 200 -114 41 -209 63
-290 67 -38 1 -73 3 -76 3 -4 1 -12 14 -19 30 -13 33 -5 58 38 104 22 23 34
27 76 27 28 0 88 -9 134 -19z m3216 -82 c34 -40 43 -76 24 -95 -8 -8 -43 -19
-79 -25 -112 -18 -337 -135 -520 -273 -41 -31 -79 -56 -86 -56 -44 -1 -16 94
48 165 101 109 462 313 561 314 17 1 35 -9 52 -30z m309 0 c34 -16 67 -78 67
-129 0 -33 -6 -48 -30 -72 -17 -16 -35 -28 -42 -26 -6 2 -25 21 -42 41 -24 30
-29 46 -27 78 1 24 -5 51 -14 65 -15 23 -14 25 7 33 20 7 49 18 55 20 1 1 13
-4 26 -10z m-3839 -49 c20 -22 36 -44 36 -49 0 -4 -16 -29 -35 -55 -46 -59
-81 -62 -131 -12 -38 38 -42 60 -18 95 19 27 72 61 95 61 9 0 33 -18 53 -40z
m-972 0 c80 -23 148 -119 148 -210 -1 -43 -38 -149 -55 -153 -4 -1 -20 39 -37
88 -16 50 -37 98 -46 107 -10 10 -43 23 -74 28 -89 17 -140 -16 -197 -127 -26
-53 -27 -98 0 -142 11 -18 18 -40 15 -48 -4 -8 -1 -11 5 -7 6 3 23 -5 37 -18
30 -28 82 -57 155 -88 36 -15 71 -20 133 -20 46 0 84 -3 84 -6 0 -3 -15 -24
-34 -47 -18 -23 -37 -52 -40 -63 -5 -18 -17 -23 -63 -29 -122 -15 -223 -58
-288 -123 -44 -43 -125 -202 -125 -244 0 -85 97 -202 224 -269 113 -60 139
-89 209 -227 97 -195 90 -187 192 -206 87 -17 82 -37 -22 -91 -193 -98 -350
-84 -443 39 -48 63 -78 76 -115 52 -39 -25 -33 -68 16 -129 22 -28 36 -53 30
-55 -18 -6 -113 28 -127 45 -8 10 -30 41 -49 68 -36 54 -91 109 -115 117 -25
9 -60 -10 -60 -32 0 -34 36 -93 82 -136 66 -61 126 -86 231 -95 102 -10 148
-22 192 -53 37 -25 40 -28 122 -151 37 -55 100 -132 140 -171 40 -39 73 -77
73 -83 0 -6 -10 -11 -23 -11 -55 0 -93 22 -177 105 -66 64 -94 85 -114 85 -26
0 -27 -1 -20 -52 l7 -52 -44 36 c-24 19 -91 63 -149 96 -190 111 -392 295
-477 438 -68 113 -97 211 -96 324 1 96 21 197 39 193 5 -1 15 -28 22 -60 25
-110 47 -176 57 -174 6 0 9 27 8 59 0 31 -3 118 -5 192 l-3 135 41 86 c40 82
64 116 64 87 0 -8 -7 -23 -15 -34 -8 -12 -12 -24 -9 -26 2 -3 -5 -27 -17 -54
-42 -97 -33 -264 21 -388 33 -77 242 -355 268 -356 8 0 12 16 12 45 0 36 -13
73 -62 172 l-63 126 0 96 c0 76 5 109 23 159 13 35 21 66 18 70 -4 3 -35 -9
-69 -28 -80 -42 -97 -38 -97 27 1 134 70 302 146 354 56 38 253 131 328 155
38 12 56 23 54 32 -2 8 -37 34 -78 57 -93 53 -157 116 -166 162 -16 85 31 269
86 335 60 72 198 114 292 88z m5964 -26 c65 -30 115 -77 146 -137 32 -59 32
-198 0 -275 -49 -118 -122 -197 -213 -229 -27 -10 -49 -21 -49 -26 0 -4 17
-15 38 -23 141 -58 273 -121 307 -147 58 -44 118 -121 170 -220 57 -106 68
-188 41 -302 -30 -125 -88 -180 -145 -137 -44 32 -61 74 -77 193 -19 136 -37
182 -95 237 -63 61 -68 58 -45 -24 21 -73 26 -118 28 -239 1 -133 -15 -200
-75 -300 -66 -111 -164 -202 -278 -259 -120 -60 -198 -71 -274 -37 -52 23
-115 67 -115 80 0 5 23 11 50 14 71 9 164 53 204 97 19 21 57 71 84 113 50 73
108 129 204 197 63 44 82 86 83 182 0 67 -3 79 -24 102 -14 14 -30 26 -37 26
-19 0 -44 -41 -44 -72 0 -46 -38 -132 -72 -165 -35 -33 -127 -83 -153 -83 -23
0 -18 33 15 106 36 79 45 142 30 209 -23 104 -23 129 0 209 21 75 21 80 5 130
-9 28 -29 70 -46 92 -31 45 -27 54 27 54 63 0 218 125 255 205 55 119 -7 236
-118 221 -72 -10 -99 -29 -118 -86 -9 -28 -21 -48 -26 -44 -5 3 -18 23 -29 44
-25 49 -27 147 -3 197 51 108 225 156 349 97z m-5498 -81 c6 -12 5 -37 -4 -72
-14 -52 -14 -56 6 -75 17 -18 34 -21 105 -22 47 -1 86 -6 86 -10 1 -5 -32 -26
-72 -47 -67 -36 -79 -39 -136 -35 -52 3 -68 9 -92 32 -75 72 -75 145 1 210 46
40 91 48 106 19z m1428 -17 c56 -8 144 -44 176 -75 28 -25 71 -123 66 -148 -2
-9 -24 1 -70 31 -65 43 -268 196 -268 202 0 2 12 2 28 -1 15 -2 45 -6 68 -9z
m509 -6 c83 -19 225 -92 288 -149 33 -30 34 -41 5 -41 -18 0 -20 -2 -8 -9 8
-6 18 -7 22 -5 4 3 8 -2 8 -10 0 -8 -4 -18 -10 -21 -19 -12 -10 -25 18 -26 16
-1 20 -3 10 -6 -10 -2 -21 -17 -24 -31 -3 -15 -7 -31 -8 -37 -2 -5 4 -16 13
-23 23 -19 -79 32 -189 94 -52 29 -128 62 -169 73 -41 11 -77 24 -80 27 -3 4
2 4 11 1 10 -3 20 -2 23 3 4 6 1 10 -4 10 -16 0 -13 26 5 44 14 15 13 16 -10
16 -29 0 -35 15 -10 24 27 10 6 21 -33 17 -41 -3 -43 19 -2 30 13 4 20 7 16 8
-5 1 -6 5 -3 9 8 13 79 14 131 2z m2931 0 c47 -17 69 -56 69 -126 0 -51 -5
-67 -29 -102 -50 -72 -142 -101 -230 -72 -38 12 -100 73 -115 113 -11 29 -15
77 -6 77 2 0 38 -11 80 -25 85 -29 104 -25 130 25 19 37 19 49 -2 73 -17 18
-17 19 2 33 22 17 61 18 101 4z m-5345 -150 c36 -20 51 -66 43 -137 -5 -46 -3
-64 4 -62 6 2 38 30 71 62 l60 59 27 -54 c14 -29 35 -65 46 -80 18 -26 18 -27
1 -36 -25 -13 -166 -24 -208 -16 -69 13 -165 125 -151 177 5 20 71 97 82 97 3
0 14 -5 25 -10z m3037 -179 c-7 -19 -202 -241 -209 -239 -12 4 -109 132 -104
136 2 2 24 -12 48 -32 24 -20 49 -36 55 -36 5 0 40 33 77 73 64 68 110 107
128 107 5 0 7 -4 5 -9z m-2429 -137 c155 -72 266 -161 364 -289 l61 -80 19 60
c10 33 20 85 20 115 l2 55 -33 -3 c-30 -2 -32 0 -22 18 18 34 77 72 106 68 47
-5 51 -30 15 -76 -31 -38 -33 -45 -37 -143 -2 -57 -9 -121 -16 -141 -9 -31 -9
-41 4 -55 9 -10 34 -77 57 -149 l42 -131 -25 -97 c-28 -102 -32 -151 -16 -161
17 -10 11 -45 -16 -104 -15 -31 -29 -74 -31 -96 -6 -53 12 -147 38 -200 25
-49 20 -62 -31 -97 -33 -23 -35 -27 -32 -74 2 -41 -1 -51 -18 -62 -17 -10 -25
-11 -36 -1 -23 19 -29 1 -11 -36 16 -33 16 -35 -9 -64 -18 -22 -31 -58 -45
-127 -10 -53 -19 -107 -19 -120 l0 -24 403 -1 c221 -1 459 0 530 1 l127 2 0
-75 0 -75 -60 -4 c-33 -2 -270 -5 -527 -6 -518 -2 -489 2 -533 -72 -154 -258
-292 -434 -530 -674 l-207 -209 -109 23 c-60 13 -124 25 -141 28 -41 5 -42 17
-4 37 16 8 31 18 33 22 1 5 57 48 123 97 66 49 161 131 210 181 105 106 280
317 353 425 70 105 275 508 307 605 42 128 86 340 93 450 18 254 -27 566 -103
719 -40 81 -144 224 -219 300 -80 82 -129 100 -261 101 -100 0 -115 -2 -167
-28 -46 -22 -59 -35 -72 -67 -20 -50 -21 -120 -2 -146 14 -19 15 -19 61 6 l46
25 26 -30 c146 -174 210 -232 424 -380 119 -82 131 -101 133 -197 1 -58 0 -61
-39 -95 -49 -43 -84 -67 -90 -62 -2 3 -9 45 -15 94 -9 73 -16 97 -39 125 -15
19 -103 85 -197 147 -198 131 -273 201 -329 304 -36 67 -39 81 -40 149 0 169
88 284 250 324 81 20 145 12 234 -30z m4826 -64 c87 -88 120 -135 136 -193 28
-104 -68 -217 -429 -499 -151 -119 -197 -168 -222 -240 -19 -51 -4 -107 32
-128 25 -13 34 -13 88 1 65 17 78 13 56 -16 -10 -15 -31 -19 -99 -23 -104 -5
-126 -1 -162 35 -67 66 -83 168 -41 251 28 53 67 93 181 181 44 35 87 68 95
74 9 7 77 58 152 115 76 57 155 123 176 147 39 44 72 124 72 174 0 52 -20 65
-105 69 -177 9 -269 -33 -435 -198 -106 -106 -120 -124 -167 -220 -28 -58 -73
-163 -100 -235 l-48 -130 -2 -185 c-2 -294 30 -500 116 -750 83 -240 126 -327
260 -529 62 -94 79 -126 69 -132 -9 -6 -6 -9 10 -9 12 0 22 -4 22 -9 0 -23
154 -170 354 -339 230 -193 319 -271 324 -284 2 -5 -67 -8 -154 -8 l-157 0
-51 47 c-207 189 -364 345 -404 402 -26 36 -55 73 -64 83 -24 24 -121 172
-207 316 l-74 122 -281 2 c-154 0 -288 1 -296 0 -16 -2 -358 -4 -402 -3 -17 1
-28 7 -30 19 -4 17 10 114 18 121 2 3 69 6 149 7 l144 2 7 -32 c11 -51 37 -96
55 -96 32 0 128 51 168 91 l42 40 174 6 c196 7 183 0 150 78 -43 101 -56 139
-69 202 -18 87 -10 130 42 222 36 64 37 69 36 166 -1 126 -14 155 -114 238
l-33 29 12 81 c32 200 72 360 107 429 23 46 133 226 163 268 14 19 26 37 27
39 2 1 13 -4 26 -13 12 -9 28 -16 34 -16 7 0 59 35 116 78 58 43 126 88 153
101 48 23 183 61 215 61 9 0 24 6 34 13 17 13 17 16 3 44 -38 73 22 42 128
-67z m-2715 -156 c38 -19 74 -28 131 -31 43 -3 79 -8 79 -10 0 -2 -11 -19 -25
-37 l-25 -33 0 -451 0 -452 -95 0 -95 0 0 103 c0 56 3 126 6 155 6 44 10 52
28 53 20 2 20 2 -1 6 -22 4 -23 7 -23 137 0 89 5 147 14 173 9 27 11 45 4 57
-6 11 -6 22 2 31 6 7 9 28 6 47 -3 18 -8 70 -10 116 -4 75 -7 86 -35 118 -48
54 -40 58 39 18z m-765 -74 c14 -27 31 -50 39 -50 7 0 19 18 26 40 14 44 30
53 30 18 0 -13 7 -36 15 -52 9 -16 13 -31 11 -34 -3 -2 -25 -7 -50 -9 -53 -6
-82 -39 -72 -79 5 -17 2 -26 -9 -30 -10 -4 -13 -14 -9 -30 4 -15 2 -24 -5 -24
-6 0 -11 4 -11 9 0 5 -12 16 -26 26 -25 16 -29 16 -67 1 -47 -18 -57 -14 -32
14 11 12 37 22 66 26 38 5 49 11 49 25 0 34 -29 51 -77 44 -49 -7 -59 8 -18
27 19 8 35 8 66 -1 59 -18 67 -6 48 69 -9 33 -12 60 -8 60 5 0 20 -22 34 -50z
m372 5 c28 -8 79 -16 113 -18 67 -3 80 -13 80 -62 0 -50 -11 -59 -53 -42 -25
11 -46 13 -73 7 -68 -15 -117 -70 -82 -91 17 -11 65 -11 72 0 9 14 86 -29 86
-48 0 -42 -41 -53 -76 -20 -18 17 -26 19 -42 10 -37 -20 -91 -13 -119 15 -22
22 -24 31 -19 68 5 28 2 59 -8 86 l-15 43 34 34 c38 38 36 38 102 18z m3308
-330 c0 -72 -4 -89 -39 -164 -45 -98 -42 -114 22 -119 73 -6 214 76 246 142 9
19 24 65 33 101 26 107 45 72 23 -44 -13 -67 -28 -86 -130 -162 -87 -64 -123
-102 -219 -225 -79 -103 -117 -126 -208 -132 -50 -3 -76 -9 -80 -18 -18 -48
77 -163 158 -189 27 -9 49 -22 49 -29 0 -24 -196 -186 -226 -186 -18 0 -23 11
-35 77 -18 98 -72 188 -131 219 -43 22 -122 18 -176 -10 -77 -39 -112 -90
-112 -159 0 -70 4 -73 88 -72 l77 0 -1 -60 c-1 -33 -5 -110 -9 -171 -12 -171
17 -247 118 -305 37 -21 54 -24 152 -24 96 0 115 3 148 22 46 28 47 18 2 -34
-43 -51 -44 -79 -6 -157 25 -51 27 -63 19 -104 -5 -26 -9 -85 -10 -132 0 -75
4 -104 29 -195 7 -27 -120 97 -212 206 -135 161 -251 341 -347 539 -59 123
-79 184 -122 371 -45 200 -68 365 -69 514 -2 105 0 120 15 123 12 2 24 -11 42
-45 38 -76 104 -153 144 -170 25 -11 51 -13 90 -8 104 13 152 33 203 86 27 28
49 54 49 59 0 5 -27 28 -60 51 -34 23 -74 61 -91 83 l-29 41 22 17 c13 10 82
59 153 110 169 119 222 164 302 260 l66 80 31 -54 c28 -47 31 -62 31 -133z
m-5495 118 c38 -71 107 -134 258 -232 173 -113 192 -129 192 -150 0 -18 -50
-69 -112 -115 -21 -15 -38 -33 -38 -41 0 -18 107 -114 147 -131 46 -20 127
-18 171 5 60 31 172 142 172 171 0 29 16 58 26 48 3 -4 1 -96 -5 -205 -16
-309 -59 -487 -169 -708 -174 -352 -261 -479 -555 -812 -97 -111 -126 -135
-107 -90 25 59 50 187 50 260 0 71 2 78 18 72 9 -3 30 -9 45 -12 28 -6 28 -5
22 33 -17 101 -38 180 -60 224 -30 60 -128 203 -172 253 -18 20 -33 42 -33 48
0 15 64 -38 150 -126 74 -75 136 -116 195 -129 36 -7 173 24 210 48 57 37 155
209 155 272 0 20 -7 76 -16 125 -15 82 -15 91 0 114 25 38 81 35 104 -5 21
-38 49 -39 63 -2 15 38 3 168 -19 206 -37 63 -160 102 -244 77 -22 -7 -59 -30
-82 -51 -38 -35 -54 -63 -87 -147 -13 -35 -73 -47 -124 -24 -40 18 -125 86
-125 100 0 3 18 14 40 25 67 32 250 175 250 196 0 20 -43 32 -162 45 -88 10
-113 32 -195 180 -39 72 -72 135 -72 141 -1 6 13 17 29 24 37 15 38 33 5 80
-28 41 -51 136 -41 175 6 24 71 105 85 105 3 0 17 -21 31 -47z m3670 -78 c0
-10 10 -15 28 -16 23 0 24 -1 7 -8 -11 -5 -26 -6 -32 -4 -7 3 -13 -2 -13 -10
0 -13 -76 -57 -100 -57 -5 0 -10 -7 -10 -15 0 -19 -28 -34 -52 -27 -25 6 -60
-31 -51 -54 4 -11 3 -15 -5 -10 -6 3 -13 2 -17 -4 -4 -7 -13 -6 -27 1 -18 10
-19 8 -13 -11 4 -13 3 -20 -2 -17 -5 3 -17 -12 -27 -33 -17 -38 -38 -51 -51
-30 -4 6 -12 6 -23 -1 -12 -8 -32 -8 -62 -2 l-45 9 33 32 c28 26 37 30 58 22
31 -12 34 -12 34 -1 0 5 -10 11 -22 14 -18 5 -19 8 -8 22 7 9 27 25 43 37 27
19 30 20 39 5 14 -26 31 -20 24 7 -8 32 2 37 70 39 41 2 58 7 66 20 6 12 16
16 29 12 10 -4 19 -2 19 4 0 5 -12 11 -27 13 -26 3 -24 5 22 26 28 12 61 29
75 36 33 19 40 19 40 1z m-1664 -52 c20 -25 24 -26 49 -15 35 16 38 12 55 -81
12 -72 44 -172 62 -194 6 -7 4 -13 -4 -16 -9 -4 -9 -6 2 -6 8 -1 33 -19 54
-41 49 -51 124 -75 207 -67 64 6 97 -8 86 -37 -7 -18 -33 -20 -89 -7 -29 7
-43 5 -68 -10 -41 -25 -64 -25 -57 1 7 25 -33 38 -69 21 -14 -6 -34 -11 -46
-11 -17 0 -19 4 -14 25 8 31 -5 32 -62 5 -84 -41 -109 -23 -77 55 19 45 6 72
-27 54 -27 -14 -34 -4 -18 26 20 38 0 55 -39 32 -32 -19 -41 -14 -41 20 0 33
-19 37 -65 13 -47 -24 -61 -25 -69 -4 -11 29 -7 94 7 94 6 0 18 4 26 9 12 8
12 13 -3 35 -18 28 -14 46 9 46 7 0 18 14 24 30 12 35 30 38 54 10 23 -27 31
-25 59 9 13 17 25 30 28 30 2 1 14 -11 26 -26z m-475 -215 c31 -45 58 -68 97
-85 62 -26 85 -136 36 -170 -15 -10 -46 -38 -70 -62 -24 -23 -50 -41 -57 -38
-6 2 -42 10 -79 17 -80 16 -103 6 -93 -42 6 -27 5 -28 -29 -28 -19 0 -38 -5
-41 -10 -4 -6 -1 -33 6 -59 11 -45 10 -51 -10 -84 -12 -20 -28 -55 -35 -79
l-12 -43 -47 3 c-44 3 -48 1 -64 -27 -23 -40 -75 -58 -118 -41 l-30 12 42 21
c60 29 68 72 28 151 -21 42 -25 63 -25 140 0 65 5 100 16 121 9 17 19 63 22
103 2 39 7 72 11 72 3 0 18 -23 33 -50 16 -28 32 -50 37 -50 4 0 25 14 46 30
25 20 49 30 72 30 75 0 146 55 190 148 14 28 31 52 38 52 8 0 24 -15 36 -32z
m1690 -65 c0 -11 3 -13 6 -5 6 14 63 17 63 2 0 -5 -5 -10 -11 -10 -6 0 -17 -7
-26 -16 -9 -8 -22 -13 -30 -10 -9 4 -13 1 -10 -6 2 -7 10 -12 17 -10 22 5 4
-23 -30 -45 l-33 -23 24 -10 c23 -10 23 -10 2 -6 -25 5 -29 -4 -11 -22 19 -19
0 -27 -42 -16 -21 6 -45 7 -52 3 -10 -7 -10 -9 2 -10 8 -1 22 -2 30 -3 8 -2
26 -3 38 -4 14 -1 22 -7 19 -14 -2 -7 -15 -12 -30 -10 -36 5 -51 -6 -36 -24 9
-11 7 -14 -9 -14 -11 0 -23 -6 -26 -12 -3 -9 -10 -7 -21 7 -15 19 -15 20 9 23
29 4 36 21 9 18 -15 -1 -17 6 -15 39 2 24 10 46 22 56 11 9 16 19 13 23 -9 8
18 37 28 30 5 -3 9 5 9 16 0 16 4 20 15 16 13 -4 14 -2 5 14 -8 15 -8 21 2 24
7 3 20 7 28 9 29 10 40 7 41 -10z m3133 -90 c3 -10 6 -49 7 -88 6 -203 -54
-303 -401 -675 -147 -158 -169 -185 -244 -304 -90 -145 -70 -156 38 -21 69 87
119 126 139 106 14 -14 -9 -126 -37 -176 -12 -22 -58 -85 -103 -140 -44 -55
-88 -117 -97 -138 -33 -80 -51 -254 -35 -341 31 -173 208 -363 308 -331 45 14
127 93 154 148 32 66 61 223 54 289 -7 53 -47 139 -82 174 -34 34 -76 31 -120
-7 -20 -18 -38 -29 -41 -27 -3 3 0 34 5 68 19 116 82 175 160 151 46 -13 66
-41 95 -130 23 -72 39 -83 76 -53 21 17 24 31 30 113 7 107 33 176 80 209 33
24 194 105 229 115 28 9 28 12 -14 -169 -29 -125 -45 -156 -115 -215 -63 -53
-64 -73 -3 -111 55 -35 81 -37 125 -10 60 36 118 17 138 -46 11 -33 9 -56 -11
-136 -10 -40 -29 -52 -29 -18 0 38 -38 97 -74 114 -44 21 -58 20 -106 -4 -50
-25 -55 -25 -94 5 -53 41 -72 31 -54 -27 10 -34 7 -43 -68 -184 -65 -123 -91
-162 -149 -220 -91 -92 -133 -114 -224 -114 -90 0 -114 10 -181 74 -30 29
-103 88 -162 130 -147 106 -182 149 -230 286 -16 45 -19 77 -17 185 1 72 0
155 -2 185 -9 126 -3 194 18 235 31 58 104 128 218 205 159 109 194 160 109
160 -32 0 -47 -10 -128 -89 -76 -74 -101 -92 -146 -105 -58 -17 -120 -21 -120
-7 0 25 110 171 182 241 116 113 153 129 421 185 145 31 304 133 357 230 15
28 49 105 75 173 26 67 51 122 56 122 4 0 10 -8 13 -17z m-7409 -114 c4 -5 13
-66 20 -134 16 -152 33 -192 170 -395 53 -79 108 -169 122 -200 27 -62 60
-176 67 -232 6 -53 -16 -50 -38 5 -62 149 -87 189 -213 351 -102 128 -124 166
-154 260 -28 86 -37 268 -16 319 16 37 30 46 42 26z m3075 -34 c25 -8 63 -21
85 -29 22 -8 121 -31 220 -52 169 -36 192 -38 365 -39 101 -1 203 2 225 7 22
4 95 17 163 28 68 12 161 34 208 51 48 17 87 29 89 27 2 -2 -4 -19 -14 -38
-15 -33 -21 -36 -121 -62 -171 -45 -275 -60 -465 -67 -156 -6 -203 -4 -350 15
-93 13 -226 37 -295 54 -69 17 -133 32 -142 34 -18 4 -149 -109 -167 -143 -6
-11 0 -43 19 -97 72 -208 105 -418 109 -684 3 -232 -13 -388 -56 -537 -22 -79
-29 -93 -47 -94 -20 -1 -20 -1 -1 -7 17 -6 78 -67 139 -139 21 -25 14 -63 -13
-63 -32 0 -161 165 -161 207 0 13 15 79 34 146 19 67 40 170 46 228 20 202 11
476 -21 619 -6 25 -12 56 -14 70 -3 24 -29 122 -75 290 l-20 74 42 46 c99 105
163 170 168 170 3 0 25 -7 50 -15z m3890 -103 c0 -36 -62 -142 -113 -196 -50
-52 -54 -54 -128 -65 -103 -14 -150 -37 -241 -115 -84 -72 -134 -133 -192
-239 -54 -96 -90 -111 -208 -86 -101 22 -140 95 -136 254 3 116 -39 169 -131
167 -28 -1 -51 2 -51 7 0 16 59 89 92 112 65 46 154 22 205 -56 11 -17 29 -67
38 -111 10 -43 24 -91 31 -106 16 -30 61 -58 94 -58 33 0 81 53 78 87 -2 39
10 58 94 140 l73 72 70 6 c88 8 165 29 190 53 19 17 104 83 168 130 38 27 67
29 67 4z m-3787 -41 c184 -49 227 -56 502 -85 17 -2 120 2 230 10 202 13 223
17 410 78 44 14 87 26 96 26 17 0 119 -104 119 -121 0 -5 -12 -37 -26 -72 -46
-112 -104 -359 -119 -507 -3 -30 -8 -71 -10 -90 -12 -79 -17 -126 -16 -135 0
-5 6 -58 14 -117 12 -101 12 -108 -4 -108 -10 0 -21 -5 -25 -11 -4 -7 2 -9 17
-7 25 3 24 4 50 -113 6 -31 9 -72 7 -90 -4 -26 0 -41 18 -62 37 -45 31 -69
-35 -137 -64 -65 -82 -71 -166 -49 -22 5 -51 11 -65 14 -14 2 -61 12 -105 21
-110 25 -528 26 -655 2 -47 -8 -140 -26 -208 -39 l-123 -23 -45 45 c-61 59
-74 91 -58 143 7 23 15 53 18 69 4 15 13 27 21 27 17 0 20 17 5 22 -6 2 -5 49
5 134 41 350 13 678 -81 966 l-36 107 23 31 c24 32 106 100 121 100 4 0 59
-13 121 -29z m-1519 -90 c23 -20 42 -56 51 -99 7 -32 6 -33 -15 -22 -30 16
-101 16 -139 1 -43 -18 -66 -64 -86 -170 -11 -53 -27 -103 -38 -117 -47 -60
-164 -89 -241 -60 -77 29 -220 195 -193 223 4 3 29 -9 56 -26 71 -46 108 -49
191 -17 78 31 94 48 135 146 15 36 36 77 47 93 47 66 179 94 232 48z m436
-376 c10 -12 5 -17 -27 -32 -42 -20 -54 -50 -27 -70 24 -17 99 -17 160 2 97
29 147 15 187 -53 17 -30 17 -31 -2 -41 -14 -8 -22 -7 -31 4 -11 14 -15 14
-32 -2 -18 -16 -22 -16 -64 0 l-45 16 -9 -24 c-5 -14 -16 -25 -23 -25 -15 0
-41 26 -50 51 -4 13 -24 17 -92 21 -94 5 -109 14 -98 58 3 14 20 40 37 59 46
50 93 64 116 36z m-1403 -117 c34 -8 63 -27 115 -76 77 -73 181 -220 200 -285
9 -28 13 -109 13 -242 l0 -200 -38 -78 c-26 -53 -58 -98 -100 -141 -113 -114
-209 -152 -363 -144 -126 7 -179 34 -304 155 -52 50 -113 106 -135 123 -45 36
-53 53 -54 128 -1 43 -4 52 -19 52 -23 0 -69 -34 -111 -82 -19 -22 -42 -38
-55 -38 -12 0 -39 -9 -61 -20 -44 -23 -59 -16 -82 37 -17 42 -17 87 2 123 18
35 47 42 161 38 93 -3 114 7 114 56 0 27 -10 41 -64 87 -40 33 -74 73 -90 104
-25 48 -25 55 -19 168 7 127 10 132 59 95 124 -93 156 -149 249 -435 91 -280
102 -305 161 -395 56 -84 144 -150 222 -167 111 -23 168 -8 237 63 80 80 89
108 87 261 -2 197 -28 274 -139 412 -66 82 -106 158 -128 243 -21 83 -14 122
28 149 37 24 52 25 114 9z m-238 -17 c6 -10 15 -49 21 -87 22 -143 59 -225
154 -339 129 -154 149 -239 84 -356 -19 -35 -51 -76 -72 -93 -33 -27 -46 -31
-96 -31 -49 0 -65 5 -102 30 -60 43 -80 85 -75 161 2 33 11 70 18 82 17 28 50
28 74 2 28 -31 66 -23 87 20 22 44 24 175 4 225 -8 19 -38 56 -67 84 -50 48
-51 50 -35 72 23 34 20 71 -14 146 -16 36 -30 74 -30 84 0 25 36 25 49 0z
m6648 -49 c-2 -21 -21 -73 -41 -114 -38 -79 -44 -127 -22 -167 13 -23 12 -26
-23 -43 -20 -10 -57 -38 -81 -63 l-45 -46 0 -95 c0 -95 0 -96 32 -125 38 -33
57 -30 79 13 21 40 59 57 81 35 27 -27 25 -157 -3 -194 -26 -35 -73 -52 -149
-52 -86 -1 -123 20 -159 92 -25 48 -30 71 -30 130 -1 93 25 147 135 282 105
129 123 162 144 265 22 106 29 120 62 120 24 0 25 -2 20 -38z m-6661 -287 c26
-21 53 -54 61 -72 15 -38 14 -159 -2 -157 -5 1 -25 30 -45 65 -25 44 -43 65
-58 67 -32 5 -87 -33 -124 -85 -38 -52 -48 -39 -24 31 8 25 20 73 25 106 13
81 24 93 78 87 30 -3 57 -16 89 -42z m2469 -127 c-3 -62 -8 -131 -11 -153 -9
-61 -54 -217 -70 -242 -27 -43 -14 -71 86 -184 115 -128 100 -120 180 -89 28
11 64 20 80 20 16 0 31 4 34 9 7 11 249 66 321 73 l30 3 -1 -190 c-1 -368 -14
-779 -24 -789 -7 -7 -10 -6 -10 2 0 6 -7 9 -16 5 -12 -4 -11 -8 8 -17 23 -12
23 -13 22 -191 -3 -590 -7 -725 -25 -725 -4 0 -24 21 -45 48 -21 26 -66 72
-100 102 -44 38 -59 57 -51 63 8 6 7 7 -4 4 -9 -3 -34 12 -62 37 -57 53 -106
91 -179 138 -32 21 -58 42 -58 47 0 20 29 18 76 -5 27 -13 57 -24 66 -24 27 0
74 47 92 90 10 26 22 40 34 40 27 0 42 20 42 56 0 42 -14 77 -54 139 -40 61
-66 130 -66 173 0 18 2 32 4 32 21 0 40 -21 67 -74 17 -33 49 -79 70 -102 27
-27 44 -57 53 -89 6 -27 17 -50 23 -52 24 -8 63 126 63 218 0 77 -57 212 -103
244 -18 13 -23 28 -28 103 -7 98 -25 182 -49 227 -15 27 -114 105 -133 105
-20 0 -80 51 -119 101 -57 73 -120 127 -204 174 -192 107 -304 195 -304 238 0
24 3 26 33 20 17 -3 36 -10 42 -14 13 -13 43 -11 47 3 8 24 -5 60 -26 68 -37
14 -56 43 -48 73 l7 28 35 -24 c22 -15 34 -30 32 -41 -2 -11 1 -15 7 -12 6 4
22 -1 36 -10 24 -16 29 -16 60 -1 52 25 60 49 29 87 -15 17 -43 39 -63 49 -20
11 -69 53 -108 94 -40 41 -81 78 -90 82 -10 4 -46 9 -80 11 -34 1 -71 8 -82
13 -11 6 -56 11 -100 11 -87 0 -100 -10 -61 -45 11 -10 20 -21 20 -25 0 -3
-28 -11 -62 -17 -35 -6 -81 -18 -102 -27 -37 -15 -39 -18 -23 -33 16 -16 15
-19 -16 -51 -17 -19 -27 -36 -22 -38 39 -16 43 -44 6 -44 -30 0 -99 -68 -136
-134 -39 -70 -44 -102 -17 -122 16 -12 15 -14 -8 -39 -30 -33 -71 -55 -100
-55 -28 0 -66 29 -145 108 -60 60 -65 63 -107 60 -35 -2 -44 -7 -46 -24 -2
-11 4 -27 13 -34 23 -19 18 -31 -10 -24 -18 4 -30 -1 -50 -21 -39 -43 -35 -46
52 -60 24 -4 46 -11 49 -17 8 -12 -23 -35 -58 -43 -20 -5 -28 -13 -28 -27 0
-19 4 -20 44 -15 43 6 44 6 74 -43 28 -45 35 -50 67 -50 24 0 35 -4 35 -15 0
-10 10 -15 30 -15 24 0 30 -4 30 -20 0 -18 4 -20 35 -14 26 5 41 2 54 -10 17
-16 22 -15 72 7 73 34 84 36 99 27 21 -13 1 -31 -77 -66 -44 -20 -95 -54 -127
-84 -47 -44 -58 -50 -120 -60 -62 -10 -75 -9 -133 12 l-63 23 -56 -30 -56 -30
-21 26 c-12 15 -53 66 -92 114 -38 48 -82 101 -97 118 -15 18 -28 34 -28 37 0
3 59 59 131 125 211 193 370 386 581 705 l43 65 80 5 c44 3 284 6 533 8 l453
2 -6 -112z m-3394 -250 c54 -159 99 -235 211 -352 50 -52 70 -68 79 -59 6 6
22 50 36 99 27 98 51 150 96 209 50 65 50 65 43 -20 -8 -101 16 -319 44 -400
38 -111 179 -344 311 -515 78 -102 412 -413 635 -593 75 -61 220 -169 504
-377 296 -216 480 -397 480 -471 0 -43 -42 -83 -112 -108 -117 -41 -213 -84
-270 -123 -32 -21 -62 -38 -68 -38 -6 0 -17 17 -25 37 -12 28 -37 53 -99 98
-472 339 -912 701 -1162 956 -284 292 -347 374 -506 674 -119 223 -198 431
-254 670 -25 107 -22 486 4 461 3 -4 27 -70 53 -148z m5113 111 c22 -6 52 -24
66 -39 14 -15 37 -30 51 -32 34 -4 36 -45 5 -107 -31 -61 -32 -68 -6 -89 12
-10 24 -39 30 -72 12 -65 21 -76 48 -59 28 17 42 4 82 -74 18 -34 39 -67 47
-74 13 -10 12 -15 -2 -42 -18 -35 -31 -39 -40 -12 -11 35 -33 32 -57 -7 l-23
-37 -9 28 c-13 35 -21 34 -36 -3 -14 -33 -27 -38 -37 -14 -4 11 -17 15 -51 12
-43 -3 -45 -2 -57 32 l-12 35 -62 -3 c-38 -2 -61 1 -61 8 0 6 -15 20 -34 31
-35 20 -52 44 -37 53 4 3 24 -6 44 -19 43 -30 68 -24 114 28 28 32 45 81 57
162 2 17 5 35 7 40 4 12 -9 94 -17 106 -3 5 -23 0 -44 -11 -43 -22 -104 -27
-98 -9 2 6 27 20 56 31 55 21 87 54 76 81 -10 26 -67 40 -111 28 -50 -14 -60
-14 -45 2 16 15 70 35 97 36 11 1 38 -4 59 -10z m908 -79 c46 -31 95 -105 100
-150 5 -59 -23 -49 -71 24 -44 69 -89 104 -145 113 -65 10 -113 -43 -155 -169
-18 -53 -27 -68 -42 -68 -21 0 -26 -16 -6 -23 8 -3 4 -13 -14 -31 -32 -33 -99
-45 -123 -21 -25 26 -19 38 15 31 46 -9 96 51 124 147 39 135 92 179 210 174
54 -2 78 -8 107 -27z m2389 -122 c0 -29 2 -73 3 -98 11 -196 -96 -621 -215
-848 -62 -119 -214 -356 -292 -455 -247 -315 -610 -638 -1142 -1017 -235 -167
-277 -203 -340 -285 -32 -41 -63 -75 -70 -75 -7 0 -34 28 -61 62 -88 114 -152
162 -261 199 -35 11 -68 29 -73 39 -58 109 152 356 490 575 74 49 207 135 295
193 88 58 198 130 245 161 47 30 116 80 154 111 37 30 80 64 95 75 15 11 45
36 67 56 21 20 80 72 130 117 106 94 158 153 239 271 143 209 208 378 250 651
8 52 15 133 15 180 0 83 0 84 19 65 30 -31 93 -152 121 -233 15 -40 29 -74 33
-75 12 -3 91 65 135 117 24 28 67 99 95 159 28 59 55 107 59 107 5 0 8 -24 9
-52z m-7775 -208 c103 -100 207 -172 273 -190 24 -6 87 -10 142 -8 56 1 102
-2 107 -7 63 -74 235 -281 547 -660 207 -253 385 -468 395 -478 17 -18 19 -18
71 9 30 15 107 62 171 104 l117 78 67 -85 c148 -187 271 -276 694 -503 335
-180 507 -279 554 -321 76 -66 159 -242 200 -421 10 -46 70 -69 176 -69 49 -1
98 2 109 6 14 4 45 56 99 168 71 144 86 169 143 223 125 118 304 240 464 314
169 78 240 114 380 189 208 111 223 121 479 324 l136 109 132 -88 c73 -48 139
-89 148 -91 12 -3 93 80 271 278 140 156 297 330 349 388 52 58 161 181 243
272 l148 166 57 -20 c37 -14 84 -21 137 -21 75 -1 85 1 139 34 74 45 151 128
235 253 80 121 86 111 41 -65 -80 -314 -157 -477 -316 -668 -173 -208 -349
-345 -989 -770 -231 -153 -356 -243 -417 -300 -140 -130 -258 -300 -258 -373
0 -66 63 -137 122 -137 13 0 32 -6 42 -13 16 -12 16 -13 -1 -29 -22 -19 -218
-125 -373 -202 -254 -126 -438 -197 -695 -266 -66 -17 -150 -41 -187 -51 -207
-59 -640 -101 -833 -80 -96 10 -418 57 -463 67 -196 45 -499 152 -660 233 -79
40 -292 179 -440 288 l-84 61 58 17 c74 21 109 47 134 95 42 83 21 128 -129
283 -108 112 -165 158 -319 259 -59 39 -129 87 -157 107 -246 183 -319 239
-422 322 -160 130 -313 268 -478 433 -289 290 -401 479 -450 761 -16 92 -20
165 -8 165 3 0 48 -40 99 -90z m5531 -25 c19 -40 40 -46 45 -13 6 41 27 29 68
-41 59 -98 81 -163 86 -252 5 -82 -6 -129 -30 -129 -26 0 -30 21 -30 160 -1
134 -1 135 -31 177 -35 50 -47 53 -64 16 l-13 -28 -18 23 c-23 28 -26 28 -45
-8 -19 -37 -42 -39 -51 -5 -7 28 -22 31 -50 10 -26 -20 -32 -19 -36 7 -4 29
-25 34 -33 8 -8 -26 -25 -22 -36 8 -6 16 -2 29 18 52 l26 31 26 -25 c36 -34
49 -33 59 7 l9 32 13 -27 c15 -31 28 -36 35 -13 3 8 7 22 10 30 7 25 24 17 42
-20z m-1914 -210 c-1 -110 -5 -454 -8 -765 -3 -311 -8 -644 -12 -740 -8 -214
-8 -299 1 -307 3 -4 32 20 64 53 51 54 160 140 291 231 114 79 360 208 531
278 36 15 89 36 117 48 29 12 55 28 58 36 8 21 -70 6 -105 -21 -20 -14 -36
-19 -54 -14 -31 8 -34 24 -6 34 12 4 28 20 38 36 12 20 26 29 47 31 17 1 48 8
71 14 36 9 42 16 53 51 11 38 31 47 31 15 0 -19 56 -47 99 -51 22 -2 49 5 73
18 41 24 49 38 19 38 -10 0 -24 7 -31 15 -17 21 -3 93 24 115 90 76 110 90
136 90 41 0 80 -17 80 -35 0 -11 -11 -14 -47 -12 l-48 2 -10 -53 c-10 -52 -25
-61 -25 -16 0 45 -35 41 -64 -7 -21 -35 -17 -52 18 -75 25 -16 27 -15 64 12
20 15 94 84 164 152 l127 124 45 -28 c24 -16 78 -51 119 -77 l75 -48 55 57
c54 57 55 57 86 45 41 -18 50 -9 85 82 17 44 49 100 80 138 28 36 127 160 221
277 l169 212 140 0 c131 0 138 -1 125 -17 -53 -64 -365 -413 -499 -558 -109
-119 -147 -161 -236 -260 -49 -55 -110 -122 -136 -149 l-46 -50 -59 39 c-32
22 -93 65 -137 97 l-80 56 -55 -44 c-31 -25 -65 -53 -76 -62 -109 -95 -215
-179 -290 -229 -100 -66 -269 -162 -336 -191 -24 -11 -75 -34 -114 -52 -168
-78 -204 -95 -274 -126 -116 -54 -227 -137 -377 -285 -83 -82 -97 -102 -160
-225 l-69 -135 -79 3 -80 3 -17 65 c-36 139 -91 253 -168 348 -34 42 -196 170
-260 204 -17 10 -30 23 -29 30 2 8 -6 12 -19 11 -13 -2 -40 7 -60 18 -61 34
-102 55 -208 104 -106 49 -374 199 -403 225 -9 9 -33 22 -52 30 -34 14 -122
97 -284 268 -43 45 -86 82 -96 82 -10 0 -82 -43 -161 -96 -102 -68 -149 -94
-163 -90 -32 9 -176 178 -376 441 -46 61 -115 148 -155 195 -39 47 -84 101
-100 121 -17 20 -77 94 -133 164 -57 69 -102 129 -99 131 3 3 61 -6 130 -20
68 -14 126 -26 129 -26 3 0 97 -111 209 -247 235 -284 435 -519 447 -527 4 -2
28 9 52 25 55 37 217 124 247 134 19 5 31 -3 70 -47 92 -103 151 -156 239
-215 49 -34 106 -77 126 -97 23 -22 47 -36 63 -36 18 0 28 -7 35 -26 8 -20 14
-24 33 -19 37 12 39 11 51 -24 16 -46 39 -60 63 -39 17 16 22 15 73 -14 30
-17 80 -44 110 -61 96 -52 221 -137 216 -146 -3 -5 4 -11 17 -15 12 -3 40 -21
61 -40 34 -29 36 -35 20 -39 -12 -3 -8 -5 11 -6 25 -1 56 -27 181 -153 82 -84
163 -170 180 -190 22 -28 33 -35 44 -28 11 7 12 10 2 10 -8 0 -11 7 -8 18 3 9
8 247 10 527 9 892 18 1370 24 1377 4 3 21 8 37 11 27 4 26 4 -7 6 -37 1 -38
2 -38 39 0 21 3 42 7 46 4 4 41 5 83 4 l75 -3 -2 -200z m427 156 c0 -10 -15
-38 -33 -62 -48 -64 -97 -139 -97 -148 0 -17 33 -21 50 -6 21 19 34 19 50 0
28 -34 72 -14 96 44 11 25 11 25 20 -19 12 -56 36 -64 63 -20 12 20 21 28 26
20 4 -6 4 -14 1 -17 -3 -3 10 -21 29 -40 41 -41 42 -46 13 -61 -18 -8 -19 -11
-5 -11 21 -1 22 -24 2 -41 -21 -18 -35 -4 -33 36 2 51 -14 61 -51 33 l-31 -23
-25 24 -26 24 -6 -22 c-5 -20 -10 -22 -35 -17 -23 5 -35 2 -54 -16 -22 -21
-25 -21 -42 -6 -24 22 -42 21 -42 -1 0 -26 -11 -34 -27 -20 -20 16 -25 4 -12
-26 16 -34 49 -55 73 -46 14 4 16 9 8 14 -7 4 -16 4 -22 1 -6 -4 -7 2 -1 17 6
15 15 22 27 19 45 -10 69 -6 66 11 -4 24 17 32 37 14 24 -22 38 -20 52 6 l12
22 18 -23 c23 -28 24 -45 3 -65 -8 -9 -11 -16 -5 -16 14 0 14 -10 1 -30 -9
-13 -14 -11 -35 13 -13 15 -34 27 -47 27 -14 0 -18 -3 -11 -8 13 -8 6 -92 -7
-92 -4 0 -15 12 -25 26 -21 33 -31 24 -55 -48 -9 -29 -21 -52 -25 -51 -5 1
-15 25 -22 54 -16 62 -20 69 -39 69 -13 0 -15 -17 -12 -110 3 -93 0 -112 -14
-127 -10 -9 -21 -13 -25 -9 -4 4 -9 80 -11 169 -4 162 -4 163 28 261 39 119
62 161 130 238 54 61 70 70 70 39z m514 -182 c17 0 35 -7 42 -17 12 -16 14
-15 38 7 27 25 63 23 52 -4 -7 -19 -3 -19 45 6 53 27 69 14 69 -53 0 -58 -13
-60 -47 -9 l-23 33 -10 -28 c-6 -16 -13 -35 -15 -41 -7 -21 -25 -15 -37 12
-15 33 -34 32 -53 -5 -18 -35 -40 -39 -55 -10 -15 29 -40 25 -40 -5 0 -14 -4
-25 -9 -25 -14 0 -31 59 -31 108 0 41 1 44 23 37 12 -4 35 -7 51 -6z m253
-169 c5 0 18 9 28 20 26 29 38 25 32 -10 -8 -38 4 -44 49 -25 46 19 53 13 31
-24 -30 -51 -16 -62 44 -37 14 6 16 2 11 -21 -2 -15 -9 -33 -13 -39 -6 -7 -2
-20 10 -35 10 -13 24 -49 31 -80 10 -44 19 -60 40 -73 35 -20 74 -21 90 -1 7
8 17 15 22 15 11 0 6 -95 -5 -106 -4 -4 -7 -3 -7 2 0 6 -6 18 -13 28 -13 17
-15 16 -37 -19 l-23 -38 -11 34 c-15 47 -36 42 -68 -16 l-28 -50 6 110 7 110
-49 22 c-27 12 -60 25 -74 29 -36 9 -112 59 -142 93 -14 15 -34 35 -45 42 -27
20 -65 77 -55 83 5 3 21 -2 37 -10 27 -14 30 -13 54 10 25 26 25 26 46 6 12
-11 26 -20 32 -20z m-380 -17 c4 -10 10 -20 13 -23 4 -3 19 -26 34 -52 31 -53
36 -118 14 -168 -19 -43 -36 -37 -63 23 -32 68 -32 87 0 87 19 0 25 5 25 23 0
13 -11 38 -25 57 -26 35 -33 70 -15 70 6 0 14 -8 17 -17z m1219 -132 c-10
-106 -42 -247 -63 -283 -21 -36 -67 -67 -80 -55 -4 5 3 27 16 49 59 103 108
271 111 382 0 6 6 2 12 -8 7 -12 8 -43 4 -85z m112 -30 c10 -72 7 -139 -9
-191 -19 -60 -61 -150 -71 -150 -22 0 -18 40 12 134 24 74 34 126 38 194 5
104 17 109 30 13z m-3823 25 c24 -56 67 -59 98 -6 30 51 38 43 71 -72 22 -75
73 -121 153 -137 31 -6 68 -11 82 -11 51 0 67 -22 75 -102 7 -74 41 -153 72
-165 20 -8 17 -24 -3 -16 -10 3 -14 2 -10 -2 4 -5 21 -10 37 -11 28 -2 30 0
30 32 0 47 16 42 42 -13 l23 -48 48 2 c39 2 47 0 47 -15 0 -76 -118 -84 -250
-17 -53 27 -109 32 -140 13 -16 -10 -26 -8 -62 12 -77 42 -161 112 -274 227
-60 62 -115 113 -121 113 -15 0 -168 -81 -243 -128 -61 -39 -65 -40 -83 -24
-41 36 -197 232 -185 232 6 0 31 -9 55 -21 35 -17 46 -19 58 -9 8 7 15 19 15
26 0 17 -1 17 39 3 27 -10 34 -9 45 6 9 13 21 16 42 12 71 -14 69 -14 66 21
-4 37 1 39 35 12 28 -22 58 -26 68 -10 4 6 -3 27 -14 46 -12 19 -21 37 -21 40
0 11 27 1 58 -22 38 -30 93 -46 113 -33 11 6 10 15 -4 44 -10 20 -15 41 -12
46 13 19 37 8 50 -25z m2318 -196 c3 -39 14 -76 32 -107 78 -136 91 -172 64
-188 -18 -12 -49 26 -86 104 -31 64 -37 87 -40 159 -1 46 0 88 3 93 12 19 21
-3 27 -61z m486 -52 c-4 -61 9 -70 53 -38 28 21 30 21 44 3 13 -17 15 -17 33
5 26 30 34 28 26 -7 -3 -16 -2 -45 3 -65 10 -34 9 -35 -21 -38 -26 -2 -34 -9
-42 -35 -5 -18 -12 -33 -15 -33 -3 0 -13 14 -22 31 -20 34 -38 31 -38 -7 0
-13 -4 -24 -10 -24 -5 0 -10 17 -10 38 0 51 -8 57 -38 30 -23 -21 -25 -21 -17
-3 4 11 11 50 16 87 12 104 43 149 38 56z m-725 -24 c11 -94 44 -174 100 -244
73 -91 93 -130 63 -130 -25 0 -95 81 -131 154 -36 72 -55 154 -56 239 0 57 16
44 24 -19z m-110 -142 c9 -74 61 -180 145 -297 71 -99 86 -142 53 -153 -12 -4
-64 48 -86 86 -80 141 -136 311 -136 410 1 51 15 23 24 -46z m-949 -259 c6
-18 21 -43 33 -56 l23 -24 -38 -23 c-34 -20 -45 -21 -129 -15 -75 5 -97 4
-123 -10 -32 -16 -33 -16 -67 14 -19 17 -48 38 -66 47 -28 14 -29 17 -14 26
17 10 124 6 211 -8 38 -5 43 -3 83 41 48 53 72 55 87 8z m-1741 -1114 c47 -52
61 -82 54 -116 -5 -27 -39 -27 -107 1 -33 14 -75 26 -94 26 -18 0 -42 6 -52
14 -19 14 -18 17 30 69 83 90 93 91 169 6z m501 -100 c66 -44 168 -113 228
-152 76 -50 104 -73 95 -80 -9 -6 -7 -7 6 -3 11 4 40 -7 76 -29 32 -20 89 -49
127 -66 37 -16 77 -34 88 -39 11 -5 110 -39 220 -76 110 -37 205 -70 210 -74
6 -4 35 -10 65 -13 30 -4 84 -11 120 -16 161 -24 435 -52 516 -52 123 0 348
17 474 36 132 20 447 103 705 186 91 29 433 195 603 293 35 20 66 36 68 36 2
0 44 23 94 50 50 27 94 50 99 50 5 0 29 -21 53 -47 23 -26 70 -76 104 -110 73
-76 88 -78 207 -29 149 61 212 76 255 62 55 -18 17 -81 -157 -260 -271 -277
-605 -467 -1176 -668 -164 -58 -307 -97 -460 -128 -60 -12 -141 -28 -180 -36
-177 -35 -366 -48 -695 -49 -365 0 -550 27 -866 128 -44 14 -137 44 -209 67
-184 58 -499 182 -511 201 -3 5 -12 9 -20 9 -8 0 -67 26 -132 59 -169 85 -221
113 -248 139 -14 12 -29 22 -34 22 -12 0 -188 134 -269 204 -105 92 -120 129
-81 206 26 51 45 60 124 60 62 0 68 2 118 43 108 88 157 117 191 112 27 -4 28
-4 7 3 l-25 8 30 17 c17 9 37 16 45 17 9 0 70 -36 135 -81z"/>
<path d="M9140 5512 c0 -4 18 -25 40 -47 23 -22 46 -58 55 -84 13 -40 35 -272
51 -531 3 -47 7 -100 9 -118 l4 -34 -82 7 c-45 3 -91 8 -102 11 -11 2 -5 -3
13 -11 18 -9 63 -18 99 -20 37 -3 68 -7 70 -8 1 -2 3 -46 4 -99 2 -95 2 -97
-32 -140 -18 -24 -37 -45 -40 -48 -4 -3 -9 -14 -11 -25 -3 -18 4 -20 72 -25
41 -3 118 -3 170 0 76 4 95 8 98 21 1 8 -22 46 -51 83 l-54 68 2 161 c1 89 2
177 3 195 l2 33 175 -2 c96 -1 195 -4 220 -7 l45 -5 0 -93 c0 -68 -3 -94 -12
-94 -7 0 -5 -5 5 -11 9 -6 15 -14 12 -19 -8 -12 -8 -144 -1 -168 5 -14 -8 -39
-44 -86 -50 -65 -50 -66 -28 -75 13 -4 62 -9 110 -9 48 0 91 -3 96 -6 13 -8
132 11 148 25 12 10 7 20 -34 63 -81 86 -86 96 -78 179 11 121 26 327 31 428
3 53 7 105 9 116 2 10 7 66 11 124 8 116 25 168 73 215 17 18 28 34 25 38 -10
9 -366 7 -381 -3 -11 -6 -6 -18 21 -54 33 -43 35 -50 40 -149 7 -123 7 -142 0
-190 l-5 -38 -223 0 -223 0 -7 128 c-3 70 -9 134 -11 144 -3 9 0 19 6 23 5 3
10 14 10 23 0 9 13 37 29 61 17 25 28 48 25 53 -7 10 -364 11 -364 0z"/>
<path d="M6355 3169 c5 -21 -6 -34 -84 -97 -62 -49 -95 -70 -107 -65 -30 11
-11 -13 53 -71 37 -32 79 -59 101 -65 89 -24 202 49 202 132 0 31 -22 59 -105
131 -55 49 -65 54 -60 35z m87 -86 c35 -33 36 -66 2 -110 -27 -36 -90 -73
-124 -73 -22 0 -90 46 -90 61 0 4 35 36 78 71 42 34 79 66 80 70 7 15 26 8 54
-19z"/>
<path d="M6585 2948 c4 -18 -5 -30 -41 -58 -25 -19 -64 -50 -86 -67 -30 -25
-46 -32 -66 -27 l-27 5 32 -28 c23 -21 30 -32 22 -40 -7 -7 -1 -12 22 -17 38
-7 46 -2 30 18 -10 12 -2 22 44 58 31 23 70 55 87 71 38 32 49 33 73 7 17 -18
17 -21 1 -45 -18 -27 -54 -33 -86 -13 -10 7 -21 10 -24 7 -3 -3 -12 -40 -21
-83 -17 -90 -15 -94 63 -158 43 -35 77 -43 51 -12 -9 11 -8 15 2 19 8 2 27 9
43 15 25 9 33 7 62 -15 l34 -26 -26 -35 c-21 -27 -32 -33 -48 -28 -20 6 -20 5
4 -22 57 -64 84 -79 75 -41 -4 16 13 50 65 127 38 58 70 108 70 111 0 3 -10
10 -22 16 -16 7 -48 1 -133 -27 -151 -50 -181 -55 -189 -33 -8 19 2 114 13
132 6 8 15 9 34 2 48 -18 97 15 97 66 0 27 -124 143 -152 143 -5 0 -6 -10 -3
-22z"/>
<path d="M6944 2492 c-50 -36 -60 -50 -67 -89 -11 -57 56 -129 128 -138 l40
-5 -41 19 c-46 21 -74 54 -74 86 0 28 52 89 94 109 49 23 74 20 108 -14 25
-25 28 -35 23 -61 l-7 -31 26 17 c33 22 33 36 -1 76 -56 66 -161 80 -229 31z"/>
<path d="M7167 2317 c-100 -61 -102 -164 -4 -222 54 -31 106 -32 164 -4 54 26
83 66 83 115 0 43 -35 96 -80 119 -44 23 -118 19 -163 -8z m177 -32 c41 -38
35 -70 -23 -126 -58 -56 -102 -69 -150 -45 -37 20 -50 59 -30 95 8 14 37 43
64 63 60 45 100 49 139 13z"/>
<path d="M13601 3844 c-11 -14 -23 -35 -27 -46 -10 -32 4 -83 31 -108 26 -25
40 -23 91 15 20 14 23 14 38 0 39 -40 3 -114 -49 -101 -26 7 -26 6 -9 -19 18
-28 23 -29 44 -12 50 39 64 110 35 167 -21 40 -54 43 -91 9 -23 -22 -45 -24
-62 -7 -18 18 -14 56 9 79 16 16 23 18 35 8 22 -18 30 -2 9 21 -23 26 -29 25
-54 -6z"/>
<path d="M13493 3687 c-38 -53 -39 -57 -14 -50 14 4 29 -9 58 -49 62 -83 65
-91 50 -135 -21 -64 -44 -56 -110 37 -32 44 -61 80 -66 80 -7 0 -51 -55 -51
-64 0 -3 10 -5 22 -3 17 1 34 -15 74 -68 52 -69 74 -86 105 -78 23 6 49 56 49
93 0 27 2 30 14 21 11 -9 18 -6 35 15 26 33 27 44 3 37 -13 -3 -32 16 -72 74
-30 43 -57 91 -60 107 l-5 28 -32 -45z"/>
<path d="M13276 3397 c-74 -77 -166 -185 -166 -196 0 -6 7 -8 15 -5 15 6 35
-14 83 -84 13 -19 21 -37 18 -39 -4 -5 -147 27 -193 42 -13 4 -69 -62 -60 -71
3 -3 15 1 26 8 15 9 24 10 29 2 115 -170 117 -175 81 -194 -21 -12 -23 -11
-166 92 -75 54 -83 32 -43 -125 17 -66 29 -131 25 -144 -7 -29 -2 -29 35 -1
34 24 40 49 11 41 -15 -4 -20 3 -25 33 -7 32 -4 41 21 66 l29 29 27 -22 c19
-15 26 -27 22 -40 -12 -36 13 -19 79 54 68 75 79 92 48 83 -13 -4 -27 7 -53
42 -41 54 -54 83 -36 77 7 -2 52 -11 100 -21 68 -13 90 -15 100 -5 8 8 8 16 2
26 -6 8 -36 52 -67 97 -60 88 -65 112 -26 137 11 7 21 11 22 9 79 -103 124
-172 119 -184 -18 -48 80 51 113 113 41 81 -25 223 -104 223 -16 0 -39 -15
-66 -43z m89 -28 c69 -61 84 -131 40 -181 -13 -16 -27 -28 -30 -28 -8 0 -125
162 -125 174 0 15 52 66 67 66 7 0 28 -14 48 -31z"/>
<path d="M12651 2750 c-24 -22 -40 -41 -35 -41 5 -1 16 -2 26 -3 16 -1 128
-144 128 -164 0 -6 -5 -12 -12 -14 -7 -3 -6 -7 5 -11 12 -5 37 12 87 59 39 37
70 69 70 73 0 3 -9 17 -19 30 -22 29 -47 21 -30 -11 9 -17 6 -25 -20 -52 l-32
-31 -20 25 c-70 88 -107 146 -99 154 12 12 13 26 3 26 -5 -1 -28 -19 -52 -40z"/>
<path d="M12482 2603 c-44 -37 -55 -58 -23 -48 15 5 31 -10 75 -72 31 -42 56
-88 56 -100 0 -13 3 -23 6 -23 4 0 37 26 73 57 36 31 70 60 75 64 11 9 -32 71
-45 64 -5 -3 -3 -14 3 -25 11 -17 8 -24 -22 -55 l-35 -36 -28 33 c-15 18 -35
47 -43 63 -9 17 -25 40 -37 52 -16 18 -17 25 -8 37 25 30 -6 23 -47 -11z"/>
<path d="M12373 2512 c-46 -40 -54 -57 -25 -48 21 7 42 -13 100 -99 30 -44 38
-63 30 -73 -22 -27 2 -23 46 8 47 32 64 67 26 55 -28 -9 -135 135 -126 171 9
33 -1 30 -51 -14z"/>
<path d="M12225 2399 c-44 -33 -81 -64 -83 -69 -5 -13 17 -50 29 -50 6 0 9 10
7 22 -2 16 4 23 25 29 22 6 30 3 45 -17 9 -14 29 -41 45 -61 25 -34 32 -51 28
-80 -3 -20 13 -15 57 17 47 34 53 50 18 47 -19 -2 -35 13 -79 73 -51 69 -54
76 -40 93 17 18 53 23 53 7 0 -5 5 -10 10 -10 16 0 11 26 -8 43 -10 10 -20 17
-23 16 -2 0 -40 -27 -84 -60z"/>
<path d="M12065 2279 c-27 -21 -53 -38 -56 -38 -13 -2 -189 -122 -189 -130 0
-13 40 -45 47 -37 4 4 1 11 -7 17 -13 8 -11 12 10 29 14 11 28 20 31 20 4 0
19 -19 35 -42 15 -24 41 -60 58 -81 21 -29 26 -41 17 -50 -13 -13 -15 -27 -3
-27 5 0 30 14 55 31 48 31 63 55 28 44 -22 -7 -38 7 -81 70 -40 59 -51 90 -37
104 15 15 44 14 50 -1 2 -7 8 -9 13 -5 4 4 2 17 -5 28 -14 24 -14 24 15 33 17
5 30 -7 77 -77 38 -55 55 -89 51 -100 -9 -24 -1 -21 51 15 51 36 56 48 19 45
-22 -2 -34 10 -79 73 -40 56 -51 79 -44 92 17 31 -6 26 -56 -13z"/>
<path d="M7580 1625 c0 -3 5 -15 10 -25 9 -17 0 -30 -60 -90 -39 -39 -76 -69
-83 -68 -7 2 -13 0 -14 -5 -6 -16 -2 -27 10 -27 6 0 36 -18 65 -40 45 -35 63
-42 115 -47 59 -5 64 -4 107 29 38 29 46 41 51 78 8 57 -6 75 -103 142 -77 53
-98 65 -98 53z m118 -104 c44 -41 42 -73 -6 -122 -50 -50 -85 -58 -131 -32
-19 11 -37 26 -39 32 -3 10 124 151 137 151 4 0 21 -13 39 -29z"/>
<path d="M11733 1487 c-28 -19 -33 -30 -38 -74 -3 -29 -8 -78 -11 -109 l-6
-57 -67 67 -67 66 -32 -15 c-34 -18 -57 -43 -28 -32 21 8 32 -18 50 -126 16
-88 11 -107 -28 -107 -14 1 -33 18 -56 51 -81 116 -93 130 -108 127 -18 -4
-24 -23 -48 -163 -9 -55 -24 -108 -32 -118 -8 -9 -13 -20 -10 -22 8 -9 88 26
88 37 0 6 -7 8 -15 4 -12 -4 -15 4 -15 38 0 42 2 44 42 61 41 16 42 16 60 -7
21 -27 22 -40 6 -57 -20 -20 22 -6 122 43 70 34 80 42 58 44 -24 3 -27 9 -37
66 -19 107 -17 108 53 34 36 -38 69 -68 75 -68 6 0 11 17 11 38 1 121 20 223
34 181 3 -8 15 -42 27 -76 18 -52 19 -66 9 -78 -23 -28 -5 -24 50 10 43 27 50
35 32 35 -25 0 -32 13 -73 134 -18 52 -21 70 -11 73 13 5 17 23 5 22 -5 0 -22
-10 -40 -22z"/>
<path d="M7835 1391 c-54 -33 -80 -69 -80 -110 0 -78 88 -138 187 -129 98 10
156 110 108 186 -39 64 -153 92 -215 53z m134 -22 c19 -7 36 -22 42 -37 20
-53 -59 -152 -123 -152 -35 0 -78 36 -78 66 0 38 26 81 67 109 43 28 48 29 92
14z"/>
<path d="M8140 1290 c0 -5 5 -10 10 -10 19 0 10 -23 -37 -88 -27 -36 -51 -70
-55 -76 -3 -5 -17 -10 -30 -11 -12 -1 -23 -6 -23 -11 1 -15 109 -63 120 -53 6
7 5 13 -4 18 -11 7 -10 15 4 44 31 66 40 63 54 -18 8 -41 19 -79 25 -84 15
-12 141 -61 157 -61 8 0 7 6 -4 18 -15 16 -15 20 2 47 11 17 31 44 46 60 l26
30 -5 -92 c-5 -77 -3 -93 9 -93 8 0 22 8 32 18 22 23 139 112 147 112 3 0 -11
-32 -31 -70 -23 -44 -42 -69 -51 -68 -8 2 -17 -2 -19 -9 -4 -11 81 -43 114
-43 18 0 16 10 -3 25 -14 10 -11 21 30 103 47 93 58 102 100 86 23 -9 20 -24
-16 -99 -51 -104 -52 -105 -70 -105 -20 0 -24 -19 -5 -24 106 -28 141 -29 104
-1 -14 10 -16 17 -8 32 6 10 22 44 35 76 17 38 31 57 43 58 10 0 13 3 6 6 -20
8 -15 23 8 23 42 0 11 24 -52 42 -35 9 -83 23 -106 29 -40 12 -42 12 -76 -18
-19 -17 -49 -39 -66 -49 -17 -10 -31 -22 -31 -26 0 -4 -9 -12 -21 -19 -18 -9
-20 -8 -16 8 3 10 7 51 9 91 l3 74 -34 14 c-18 8 -40 14 -49 14 -13 0 -13 -2
1 -18 15 -16 14 -21 -16 -59 -18 -23 -45 -60 -60 -82 -16 -24 -36 -41 -47 -41
-21 0 -45 34 -35 50 3 5 1 11 -5 15 -5 3 -10 22 -10 41 0 31 3 34 29 34 20 0
36 9 50 26 33 42 10 72 -86 112 -87 35 -93 37 -93 22z"/>
<path d="M11123 1192 c-43 -16 -57 -32 -28 -32 8 0 17 -10 19 -22 13 -61 26
-130 26 -137 0 -18 -54 -61 -77 -61 -30 0 -39 23 -48 123 -4 43 -11 79 -15 82
-11 7 -80 -23 -80 -35 0 -5 6 -7 14 -4 16 6 22 -9 31 -81 11 -90 16 -105 40
-121 31 -20 85 -4 115 34 17 21 23 23 30 12 7 -11 15 -12 49 -1 23 6 41 17 41
22 0 6 -7 9 -15 6 -20 -8 -26 4 -41 87 -17 89 -18 133 -1 139 32 14 -23 3 -60
-11z"/>
<path d="M10725 1066 c-41 -18 -83 -69 -90 -110 -14 -70 27 -146 79 -146 18 0
18 -1 3 -18 -18 -20 -23 -52 -8 -52 5 0 11 9 14 20 6 24 43 26 113 9 53 -14
90 -2 103 33 12 32 2 44 -16 19 -10 -15 -24 -21 -51 -20 -37 1 -99 16 -73 18
26 2 83 53 97 87 26 63 9 140 -35 164 -27 14 -100 12 -136 -4z m96 -25 c19
-15 24 -30 27 -83 4 -57 1 -68 -19 -91 -32 -36 -78 -44 -109 -19 -19 15 -24
30 -27 78 -4 67 9 102 47 121 34 18 54 16 81 -6z"/>
<path d="M8890 1036 c0 -9 6 -16 13 -17 6 -1 1 -5 -13 -9 -17 -5 -19 -8 -7 -9
9 -1 17 -5 17 -11 0 -18 -54 -140 -62 -140 -4 0 -8 -7 -8 -15 0 -8 -7 -15 -15
-15 -23 0 -18 -19 8 -25 49 -11 169 -35 177 -35 15 0 42 48 35 60 -5 8 -14 5
-29 -9 -18 -17 -27 -19 -59 -11 -21 4 -41 11 -44 14 -3 3 1 22 10 43 16 40 24
43 85 29 25 -6 32 -4 32 7 0 10 -15 17 -44 21 l-44 7 16 39 c8 22 21 40 27 40
26 0 72 -25 68 -37 -8 -21 16 -14 28 8 15 29 6 34 -81 53 -41 9 -83 19 -92 22
-12 4 -18 0 -18 -10z"/>
<path d="M10520 1018 c-25 -11 -25 -11 -2 -15 21 -4 22 -9 22 -86 l-1 -82 -73
78 c-65 68 -77 77 -109 77 -20 0 -39 -4 -42 -10 -3 -5 1 -10 9 -10 26 0 34
-31 29 -119 -4 -57 -11 -92 -21 -103 -14 -16 -14 -18 0 -18 31 0 78 13 78 21
0 5 -7 9 -15 9 -12 0 -15 16 -15 83 l1 82 77 -83 c105 -113 112 -110 112 49 0
73 4 119 10 119 6 0 10 5 10 10 0 13 -38 12 -70 -2z"/>
<path d="M9110 994 c0 -5 9 -15 19 -21 19 -12 18 -15 -13 -100 -23 -61 -39
-91 -54 -98 -33 -15 -27 -22 24 -30 49 -7 69 1 42 16 -18 10 -16 21 11 84 5
11 13 31 18 45 10 23 13 19 52 -61 22 -47 41 -91 41 -97 0 -12 28 -24 41 -17
4 3 22 52 39 108 17 56 40 109 50 118 19 16 19 17 -3 23 -34 9 -67 7 -67 -4 0
-5 7 -10 16 -10 9 0 14 -6 11 -13 -3 -7 -13 -41 -22 -75 -10 -35 -21 -65 -25
-67 -4 -3 -18 19 -30 48 -50 120 -64 147 -76 147 -6 0 -26 3 -43 6 -17 4 -31
3 -31 -2z"/>
<path d="M10230 973 c-48 -8 -57 -14 -34 -23 15 -6 21 -16 19 -32 -1 -13 -3
-46 -4 -75 -1 -43 -6 -57 -28 -78 -31 -28 -80 -34 -89 -10 -4 9 -2 55 3 103 6
48 9 89 7 92 -1 3 -21 4 -44 2 -34 -4 -38 -6 -25 -16 14 -10 14 -23 6 -101
-10 -85 -10 -90 11 -112 29 -31 78 -30 116 2 35 30 40 31 38 8 -1 -15 6 -17
39 -15 44 4 74 22 35 22 l-23 0 6 102 c5 75 11 106 22 114 30 23 12 28 -55 17z"/>
<path d="M9473 946 c-36 -17 -53 -43 -53 -84 0 -34 11 -45 62 -61 20 -7 39
-19 42 -28 10 -24 -23 -53 -59 -53 -36 0 -55 15 -55 45 -1 20 -1 20 -15 1 -34
-46 -12 -66 73 -66 55 0 102 41 102 89 0 33 -6 39 -65 61 -34 13 -40 20 -40
45 0 28 3 30 43 33 37 3 44 0 49 -17 3 -12 9 -21 13 -21 13 0 23 41 13 50 -17
17 -78 20 -110 6z"/>
<path d="M9915 940 c-3 -5 1 -10 9 -10 24 0 25 -11 12 -83 -7 -37 -11 -69 -8
-72 3 -3 1 -5 -4 -5 -5 0 -34 37 -65 83 l-55 82 -49 3 c-47 2 -48 2 -25 -11
28 -15 28 -22 4 -134 -14 -62 -20 -75 -47 -92 l-31 -20 43 6 c31 4 46 2 52 -8
8 -12 11 -12 19 1 14 22 12 30 -6 30 -12 0 -15 6 -11 23 3 12 9 46 13 75 4 29
10 54 13 57 4 2 34 -36 66 -86 82 -124 95 -120 115 34 10 76 18 103 33 118 21
19 21 19 -26 19 -25 0 -49 -4 -52 -10z"/>
</g>
</svg>
